<svg width="442" height="456" viewBox="0 0 442 456" fill="none" xmlns="http://www.w3.org/2000/svg">
<path d="M213.816 394.068C213.816 398.9 209.896 402.841 205.07 402.599C161.842 400.438 120.824 382.313 90.0727 351.562C57.2539 318.743 38.8164 274.231 38.8164 227.818C38.8164 181.405 57.2539 136.893 90.0727 104.074C120.824 73.3228 161.842 55.198 205.07 53.0364C209.896 52.795 213.816 56.7354 213.816 61.5679C213.816 66.4004 209.895 70.2925 205.07 70.5607C166.486 72.7051 129.916 88.9798 102.447 116.449C72.9101 145.986 56.3164 186.046 56.3164 227.818C56.3164 269.589 72.9101 309.65 102.447 339.187C129.916 366.656 166.486 382.931 205.07 385.075C209.895 385.343 213.816 389.235 213.816 394.068Z" fill="url(#paint0_linear_1031_1441)"/>
<path d="M228.306 62.2005C228.727 57.3864 232.976 53.8027 237.763 54.464C257.593 57.2032 276.828 63.3277 294.622 72.591C315.007 83.2026 333.102 97.7253 347.874 115.33C362.646 132.935 373.806 153.277 380.717 175.194C386.749 194.327 389.441 214.334 388.695 234.338C388.515 239.167 384.248 242.729 379.434 242.308C374.62 241.886 371.084 237.641 371.237 232.811C371.799 215.099 369.368 197.397 364.027 180.457C357.807 160.731 347.763 142.423 334.468 126.579C321.174 110.735 304.888 97.6641 286.542 88.1137C270.786 79.9117 253.775 74.4439 236.235 71.9215C231.451 71.2337 227.885 67.0146 228.306 62.2005Z" fill="url(#paint1_linear_1031_1441)"/>
<path d="M376.433 262.391C381.16 263.396 384.199 268.05 382.959 272.721C374.259 305.494 356.203 335.102 330.91 357.874C305.616 380.646 274.282 395.505 240.778 400.729C236.003 401.473 231.693 397.964 231.188 393.158C230.683 388.352 234.176 384.072 238.946 383.301C268.774 378.48 296.654 365.167 319.2 344.868C341.747 324.57 357.904 298.235 365.818 269.076C367.084 264.412 371.706 261.386 376.433 262.391Z" fill="url(#paint2_linear_1031_1441)"/>
<defs>
<linearGradient id="paint0_linear_1031_1441" x1="19.372" y1="72.2623" x2="349.928" y2="402.818" gradientUnits="userSpaceOnUse">
<stop stop-color="white"/>
<stop offset="0.5" stop-color="#68BF98"/>
<stop offset="1" stop-color="white"/>
</linearGradient>
<linearGradient id="paint1_linear_1031_1441" x1="408.261" y1="383.373" x2="77.7054" y2="52.8178" gradientUnits="userSpaceOnUse">
<stop stop-color="white"/>
<stop offset="0.5" stop-color="#79C8D1"/>
<stop offset="1" stop-color="white"/>
</linearGradient>
<linearGradient id="paint2_linear_1031_1441" x1="-3.25666" y1="349.821" x2="427.066" y2="167.184" gradientUnits="userSpaceOnUse">
<stop stop-color="white"/>
<stop offset="0.5" stop-color="#B8BF68"/>
<stop offset="1" stop-color="white"/>
</linearGradient>
</defs>
</svg>
