<svg width="780" height="209" viewBox="0 0 780 209" fill="none" xmlns="http://www.w3.org/2000/svg">
<g opacity="0.12" clip-path="url(#clip0_373_4206)">
<path fill-rule="evenodd" clip-rule="evenodd" d="M780 124.465V119.026C767.161 109.347 751.42 101.477 733.839 95.788C719.3 90.9409 703.435 87.4342 687.445 85.751C689.863 80.904 691.438 76.3063 691.922 71.8333C692.655 64.5705 690.346 58.1493 684.403 53.1931C675.807 46.055 659.084 42.299 631.831 43.9978C591.863 46.6629 541.351 61.0638 510.088 69.9007C503.677 71.7086 497.983 73.4074 493.49 74.623L493.739 75.1062L493.256 73.6567C493.131 72.9242 492.289 72.4411 491.555 72.6905L490.214 73.0489C489.496 73.2983 489.122 74.0152 489.247 74.7477L489.496 75.5893L487.437 76.0725L487.187 75.2309C486.953 74.4984 486.22 74.1399 485.487 74.2646L484.161 74.623C483.428 74.8724 482.944 75.5893 483.194 76.3218L483.443 77.1635L481.634 77.6466L481.15 75.8387C480.667 74.2646 479.091 73.2983 477.391 73.6567L476.065 74.0152L474.614 68.4512C473.272 63.8535 469.762 50.9021 448.328 56.7154L421.683 63.8535L421.324 62.7626C420.232 58.2896 415.63 55.6245 411.153 56.8401L409.328 57.3233C404.96 58.5389 402.308 63.1366 403.509 67.4849L420.232 129.811C421.324 134.284 425.926 136.949 430.403 135.749L432.213 135.266C436.581 134.05 439.233 129.452 438.032 125.104L437.798 124.013L464.443 116.875C483.943 111.545 482.492 98.2349 481.275 93.5125L479.824 87.9485L481.15 87.5901C482.726 87.1069 483.693 85.5328 483.334 83.834L482.851 82.0261L484.551 81.543L484.785 82.3846C485.035 83.1171 485.752 83.6002 486.485 83.3509L487.827 82.9924C488.56 82.743 489.044 82.0261 488.794 81.2936L488.545 80.452L490.729 79.9688L490.963 80.7013C491.087 81.5429 491.821 81.917 492.663 81.6676L493.989 81.3092C494.722 81.1845 495.081 80.4676 494.956 79.7351L494.707 78.7688C499.309 77.5531 504.878 75.979 511.305 74.1711C542.443 65.2095 592.581 50.9333 632.205 48.3928C658.241 46.694 673.873 50.0916 681.751 56.6219C686.478 60.5027 688.162 65.6926 687.569 71.506C687.086 75.7452 685.51 80.4676 682.718 85.299C658.007 83.008 632.938 84.5665 610.521 90.5046C578.416 99.0921 557.216 114.833 549.229 128.502C546.561 133.224 545.344 137.697 545.719 141.687C546.093 145.926 548.137 149.558 552.146 152.098C559.415 156.945 573.58 157.911 595.03 152.223C629.553 142.903 665.418 117.732 682.125 94.245C683.217 92.7956 684.184 91.3462 685.151 89.772C701.5 91.4708 717.615 94.9776 732.513 99.8246C750.812 105.825 767.285 114.179 780 124.465ZM678.615 91.7826C679.224 90.9409 679.707 90.0837 680.315 89.3668C656.697 87.3095 632.954 89.0083 611.629 94.697C580.741 102.926 560.507 117.81 553.004 130.637C550.695 134.502 549.728 138.133 549.977 141.282C550.227 144.181 551.803 146.612 554.455 148.42C560.882 152.659 573.721 153.376 593.938 147.937C627.603 138.991 662.375 114.537 678.615 91.7826ZM393.088 114.537L411.871 109.456L414.289 118.652L395.506 123.608C389.453 125.307 387.035 116.111 393.088 114.537ZM385.21 85.1276L403.993 80.1714L406.411 89.2421L387.628 94.323C381.575 95.8971 379.157 86.8264 385.21 85.1276Z" fill="#2B8AC8"/>
<path d="M321.017 54.0345C321.859 54.5177 322.109 55.7333 321.625 56.575C321.142 57.4166 320.05 57.7906 319.083 57.1828L309.52 51.7435C308.677 51.2603 308.303 50.0447 308.911 49.2031C309.395 48.3615 310.487 47.9874 311.454 48.4706L321.017 54.0345ZM368.987 19.0454C369.221 20.0116 368.628 20.9779 367.661 21.2273C366.694 21.4767 365.726 20.9779 365.352 19.9025L360.625 2.35341C360.376 1.38711 360.984 0.296137 361.951 0.0467712C362.918 -0.202595 364.01 0.405235 364.244 1.37153L368.987 19.0454ZM389.095 16.879C389.095 17.8453 388.362 18.6869 387.27 18.6869C386.303 18.6869 385.46 17.8453 385.46 16.879V5.73544C385.46 4.76914 386.303 3.91195 387.27 3.91195C388.237 3.91195 389.095 4.75356 389.095 5.73544V16.879ZM409.204 19.9025C408.97 20.9935 407.878 21.4767 406.91 21.2273C405.943 20.9779 405.335 20.0116 405.569 19.0454L410.296 1.37153C410.53 0.405235 411.637 -0.202595 412.604 0.0467712C413.572 0.296137 414.18 1.37153 413.93 2.35341L409.204 19.9025ZM333.731 38.2933C334.464 39.0258 334.339 40.1012 333.731 40.8337C332.998 41.5662 331.796 41.5662 331.063 40.8337L318.1 28.0069C317.366 27.2744 317.491 26.0744 318.1 25.3418C318.833 24.6093 320.034 24.6093 320.767 25.3418L333.731 38.2933ZM350.08 26.3081C350.563 27.1498 350.204 28.3654 349.346 28.8486C348.504 29.3317 347.412 28.9732 346.804 28.116L341.344 18.5622C340.735 17.7206 341.11 16.5049 341.952 16.0218C342.919 15.5386 344.011 15.8971 344.495 16.7543L350.08 26.3081ZM427.736 28.1316C427.253 29.0979 426.036 29.3473 425.194 28.8641C424.351 28.381 423.977 27.1653 424.46 26.3237L430.03 16.7699C430.513 15.9283 431.73 15.5542 432.572 16.0374C433.415 16.5205 433.789 17.7362 433.181 18.5778L427.736 28.1316Z" fill="#2B8AC8"/>
<path d="M458.984 154.965C458.142 154.482 457.767 153.391 458.376 152.425C458.859 151.583 459.951 151.334 460.918 151.817L470.481 157.256C471.324 157.864 471.573 158.955 471.09 159.797C470.606 160.763 469.514 161.012 468.547 160.529L458.984 154.965ZM411.014 190.064C410.764 189.097 411.388 188.006 412.356 187.757C413.323 187.508 414.29 188.115 414.54 189.082L419.266 206.631C419.641 207.597 419.032 208.688 418.05 208.937C416.958 209.187 415.99 208.579 415.756 207.597L411.014 190.064ZM390.906 192.246C390.781 191.155 391.639 190.313 392.731 190.313C393.698 190.313 394.54 191.155 394.54 192.246V203.264C394.54 204.231 393.698 205.088 392.731 205.088C391.639 205.088 390.906 204.246 390.906 203.264V192.246ZM370.797 189.097C371.031 188.131 372.123 187.523 373.09 187.773C374.058 188.022 374.666 189.097 374.416 190.079L369.69 207.628C369.331 208.595 368.364 209.202 367.381 208.969C366.414 208.719 365.805 207.753 366.055 206.662L370.797 189.097ZM446.27 170.816C445.537 170.083 445.537 168.883 446.27 168.151C446.988 167.418 448.204 167.418 448.938 168.151L461.776 181.102C462.51 181.834 462.51 182.91 461.776 183.642C461.043 184.375 459.967 184.375 459.234 183.642L446.27 170.816ZM429.921 182.676C429.438 181.834 429.672 180.744 430.654 180.26C431.497 179.653 432.589 180.011 433.197 180.868L438.657 190.422C439.141 191.279 438.891 192.479 438.049 192.962C437.082 193.446 435.99 193.212 435.506 192.23L429.921 182.676ZM352.264 180.868C352.748 180.011 353.965 179.653 354.807 180.136C355.65 180.744 356.024 181.834 355.54 182.676L349.971 192.23C349.488 193.196 348.271 193.446 347.428 192.962C346.586 192.479 346.212 191.264 346.711 190.422L352.264 180.868Z" fill="#2B8AC8"/>
<path fill-rule="evenodd" clip-rule="evenodd" d="M376.49 141.531L359.767 79.2047C358.55 74.7317 353.948 72.0666 349.596 73.2667L347.771 73.7498C343.294 74.9655 340.751 79.5632 341.827 83.9115L342.186 85.1271L315.541 92.1562C311.173 93.3718 308.396 97.7201 308.88 102.084L305.978 102.926C300.518 104.375 297.258 110.064 298.709 115.519L300.16 121.083L298.834 121.441C297.133 121.924 296.166 123.623 296.65 125.197L297.133 127.021L295.324 127.504L295.199 126.662C294.949 125.93 294.232 125.571 293.498 125.696L292.157 126.054C291.424 126.304 290.94 127.021 291.19 127.753L291.314 128.595L289.255 129.203L289.021 128.361C288.896 127.628 288.054 127.145 287.321 127.395L285.995 127.753C285.262 127.878 284.903 128.719 285.028 129.452L285.277 130.294C280.675 131.509 275.106 133.192 268.679 135.016C237.541 143.853 187.403 158.129 147.779 160.67C121.742 162.493 106.111 158.971 98.2332 152.565C93.5064 148.575 91.806 143.494 92.4144 137.556C92.7732 133.317 94.4736 128.719 97.266 123.888C121.976 126.07 147.046 124.621 169.463 118.558C201.568 109.97 222.768 94.229 230.646 80.5606C233.423 75.8383 234.64 71.3653 234.281 67.3754C233.922 63.1362 231.738 59.6295 227.854 56.9644C220.459 52.242 206.419 51.151 184.969 56.9644C150.322 66.1597 114.582 91.3301 97.8744 114.817C96.7824 116.267 95.8152 117.841 94.848 119.29C78.4992 117.592 62.3844 114.209 47.4864 109.238C29.1876 103.159 12.714 94.8213 0 84.644V90.0833C12.714 99.6371 28.5792 107.508 46.0356 113.321C60.6996 118.168 76.5648 121.55 92.5548 123.374C90.1368 128.096 88.5612 132.818 88.0776 137.167C87.3444 144.43 89.5284 150.835 95.5968 155.807C104.192 162.945 120.916 166.826 148.169 165.002C188.136 162.337 238.664 148.061 269.911 139.099C276.338 137.291 281.908 135.717 286.385 134.502L286.744 135.343C286.868 136.076 287.586 136.559 288.319 136.31L289.77 135.951C290.488 135.826 290.862 134.985 290.737 134.252L290.488 133.52L292.547 132.912L292.796 133.754C293.03 134.486 293.764 134.845 294.497 134.72L295.823 134.361C296.556 134.112 297.04 133.395 296.79 132.663L296.54 131.821L298.366 131.338L298.849 133.161C299.208 134.86 300.908 135.826 302.609 135.343L303.935 134.985L305.386 140.549C306.836 146.004 312.53 149.261 318.1 147.812L321.001 147.079C322.702 151.194 327.304 153.5 331.656 152.285L358.301 145.146L358.55 146.362C359.767 150.726 364.369 153.376 368.846 152.175L370.672 151.692C375.04 150.601 377.707 146.004 376.49 141.531ZM230.038 67.7027C230.287 70.8509 229.304 74.4823 227.011 78.3475C219.492 91.1743 199.274 106.058 168.262 114.412C147.061 120.101 123.193 121.675 99.6996 119.742L101.4 117.202C117.624 94.4472 152.396 70.1184 186.061 61.0477C206.17 55.7175 219.133 56.45 225.545 60.5646C228.228 62.3725 229.679 64.8038 230.038 67.7027Z" fill="#2B8AC8"/>
</g>
<defs>
<clipPath id="clip0_373_4206">
<rect width="780" height="209" fill="white"/>
</clipPath>
</defs>
</svg>
