<svg width="310" height="223" viewBox="0 0 310 223" fill="none" xmlns="http://www.w3.org/2000/svg">
<g opacity="0.12" clip-path="url(#clip0_373_4501)">
<path d="M152.675 183.492L98.752 129.301C91.5145 122.024 91.5558 110.271 98.8505 103.046C106.145 95.83 117.925 95.8666 125.167 103.144L139.773 117.823C149.607 97.2087 165.177 68.1663 183.809 46.1044C190.428 38.2665 202.166 37.2719 210.034 43.8728C217.89 50.483 218.892 62.1941 212.271 70.0366C184.662 102.714 163.318 156.471 163.105 157.008L152.675 183.492Z" fill="#2B8AC8"/>
<path d="M67.7774 175.336C68.676 174.435 70.3016 174.532 71.2042 175.428C72.1067 176.324 72.2099 177.83 71.111 178.846L60.9685 189.089C60.07 189.99 58.4019 190.051 57.5417 188.997C56.6392 188.101 56.5359 186.595 57.4769 185.536L67.7774 175.336ZM39.7193 102.873C41.0236 102.905 42.0471 103.981 42.0346 105.287C42.0222 106.594 41.0616 107.647 39.5713 107.756L15.7214 107.787C14.4118 107.776 13.2356 106.637 13.248 105.331C13.2604 104.024 14.4017 102.85 15.706 102.882L39.7193 102.873ZM43.8029 76.7302C45.0277 77.0573 45.8455 78.2688 45.4746 79.6487C45.1461 80.8708 43.7932 81.6504 42.5684 81.3232L28.4433 77.5501C27.2185 77.223 26.4181 75.8682 26.7466 74.6461C27.0751 73.4239 28.4333 72.6247 29.6778 72.9571L43.8029 76.7302ZM54.465 52.3444C55.7684 53.0095 56.01 54.553 55.3654 55.6907C54.7208 56.8285 53.2893 57.2701 52.144 56.6472L31.3469 44.6901C30.2015 44.0673 29.8072 42.4619 30.4518 41.3242C31.0964 40.1864 32.6661 39.7818 33.826 40.4296L54.465 52.3444ZM52.1427 153.941C53.3203 153.262 54.641 153.784 55.3629 154.801C56.0423 155.975 55.6343 157.493 54.4568 158.172L33.7952 170.21C32.6177 170.888 31.139 170.324 30.4171 169.307C29.7376 168.133 30.1456 166.615 31.3231 165.937L52.1427 153.941ZM42.5036 129.224C43.7346 128.898 45.1537 129.763 45.4747 131.011C45.801 132.239 44.9757 133.497 43.6826 133.976L29.7181 137.64C28.4447 138.124 27.0309 137.239 26.7046 136.011C26.4207 134.626 27.246 133.367 28.4968 133.046L42.5036 129.224ZM71.1903 31.7122C72.2509 32.6504 72.1537 34.2724 71.2552 35.1733C70.3567 36.0742 68.6886 36.1357 67.786 35.2397L57.5676 24.9675C56.665 24.0714 56.6042 22.4072 57.5027 21.5063C58.4012 20.6054 60.0693 20.5439 60.9294 21.5977L71.1903 31.7122Z" fill="#2B8AC8"/>
<path d="M242.575 35.1707C241.677 36.0716 240.167 36.1753 239.149 35.0793C238.246 34.1833 238.301 32.7189 239.242 31.6604L249.384 21.4183C250.441 20.5596 251.909 20.6136 252.811 21.5096C253.872 22.4479 253.817 23.9122 252.876 24.9708L242.575 35.1707ZM270.772 107.671C269.462 107.659 268.291 106.501 268.304 105.194C268.316 103.888 269.415 102.871 270.725 102.883L294.575 102.852C295.927 102.706 297.103 103.844 297.085 105.171C297.03 106.635 295.931 107.651 294.607 107.615L270.772 107.671ZM266.708 133.819C265.283 133.607 264.507 132.238 264.878 130.858C265.207 129.636 266.56 128.856 267.942 129.226L281.909 132.957C283.134 133.284 283.935 134.639 283.606 135.861C283.235 137.241 281.919 137.882 280.675 137.55L266.708 133.819ZM255.888 158.162C254.742 157.54 254.343 155.954 254.987 154.816C255.632 153.678 257.202 153.274 258.362 153.922L279.001 165.836C280.104 166.617 280.546 168.045 279.915 169.208C279.271 170.345 277.839 170.787 276.541 170.102L255.888 158.162ZM258.348 56.6032C257.171 57.2816 255.65 56.8753 254.97 55.7008C254.285 54.546 254.699 53.0084 255.876 52.3299L276.653 40.4917C277.831 39.8132 279.194 40.1773 279.874 41.3518C280.553 42.5263 280.187 43.8865 279.01 44.565L258.348 56.6032ZM267.829 81.2777C266.598 81.6039 265.295 80.9388 265.016 79.5333C264.532 78.263 265.357 77.0045 266.65 76.526L280.615 72.8614C281.866 72.5405 283.302 73.2622 283.628 74.4903C283.912 75.8761 283.245 77.1768 281.836 77.4554L267.829 81.2777ZM239.162 178.795C238.24 177.893 238.199 176.234 239.098 175.334C240.154 174.475 241.664 174.371 242.567 175.267L252.785 185.539C253.846 186.478 253.749 188.1 252.85 189.001C251.952 189.901 250.283 189.963 249.386 189.047L239.162 178.795Z" fill="#2B8AC8"/>
</g>
<defs>
<clipPath id="clip0_373_4501">
<rect width="310" height="223" fill="white"/>
</clipPath>
</defs>
</svg>
