<svg width="125" height="119" viewBox="0 0 125 119" fill="none" xmlns="http://www.w3.org/2000/svg">
<path id="Union" fill-rule="evenodd" clip-rule="evenodd" d="M13.9255 41.6152C3.95091 68.0986 17.7085 98.0207 44.5352 107.65C45.567 108.339 46.5988 109.714 46.5988 110.746V115.561C46.5988 116.249 46.5988 116.593 46.2546 116.936C45.9112 118.312 44.5352 119 43.1592 118.312C23.8993 112.122 9.10989 97.3323 2.91911 78.0723C-7.39886 45.3991 10.4859 10.6613 43.1592 0.34338C43.5034 -2.20416e-06 44.191 0 44.5352 0C45.9112 0.343382 46.5988 1.37518 46.5988 2.75118V7.56596C46.5988 9.28617 45.9112 10.318 44.5352 11.0056C30.4342 16.1645 19.0845 27.1701 13.9255 41.6152ZM77.8969 1.71938C78.2403 0.343381 79.6163 -0.34421 80.9923 0.34338C99.908 6.53416 115.042 21.3235 121.232 40.9277C131.55 73.6009 113.666 108.339 80.9923 118.657C80.6481 119 79.9605 119 79.6163 119C78.2403 118.657 77.5527 117.625 77.5527 116.249V111.434C77.5527 109.714 78.2403 108.682 79.6163 107.994C93.7172 102.835 105.067 91.8299 110.226 77.3848C120.201 50.9014 106.443 20.9793 79.6163 11.3498C78.5845 10.6613 77.5527 9.28617 77.5527 7.91017V3.09539C77.5527 2.40698 77.5527 2.06359 77.8969 1.71938ZM63.1083 53.6533C77.5535 55.3727 84.776 59.4998 84.776 71.5372C84.776 80.8234 77.8977 88.0459 67.5797 89.7662V98.0205C67.2355 99.7399 66.2037 100.772 64.8277 100.772H59.6687C57.9493 100.428 56.9175 99.3957 56.9175 98.0205V89.7662C45.5678 88.0459 40.0646 81.8552 38.6894 73.2574V72.9132C38.6894 71.5372 39.7212 70.5054 41.0964 70.5054H46.9438C47.9756 70.5054 49.0074 71.1938 49.3507 72.569C50.3825 77.728 53.4779 81.5118 62.4207 81.5118C68.9549 81.5118 73.7705 77.7288 73.7705 72.2256C73.7705 66.7224 70.6751 64.6588 61.0447 62.9394C46.5996 61.2192 39.7212 56.7487 39.7212 45.3989C39.7212 36.8003 46.2554 29.9219 56.5733 28.5459V20.6358C56.9175 18.9156 57.9493 17.8838 59.3253 17.8838H64.4843C66.2037 18.228 67.2355 19.2598 67.2355 20.6358V28.8901C75.1457 29.5777 81.3364 35.4243 82.7124 42.9911V43.3353C82.7124 44.7105 81.6806 45.7423 80.3046 45.7423H74.8023C73.7705 45.7423 72.7387 45.0547 72.3945 44.0229C70.6751 38.8639 67.2355 36.8003 61.0447 36.8003C54.1663 36.8003 50.7267 39.8949 50.7267 44.7105C50.7267 49.5261 52.7903 52.2773 63.1083 53.6533Z" fill="url(#paint0_linear_1672_6558)"/>
<defs>
<linearGradient id="paint0_linear_1672_6558" x1="62.0757" y1="0" x2="62.0757" y2="119" gradientUnits="userSpaceOnUse">
<stop stop-color="#3579C4"/>
<stop offset="1" stop-color="#7BABE0"/>
</linearGradient>
</defs>
</svg>
