<svg width="514" height="585" viewBox="0 0 514 585" fill="none" xmlns="http://www.w3.org/2000/svg">
<path opacity="0.4" fill-rule="evenodd" clip-rule="evenodd" d="M-47.2222 179.315C-110.335 346.885 -23.2858 536.214 146.457 597.143C152.985 601.499 159.514 610.201 159.514 616.729V647.199C159.514 651.55 159.514 653.728 157.336 655.901C155.163 664.607 146.457 668.958 137.75 664.607C15.8856 625.436 -77.6923 531.858 -116.864 409.993C-182.149 203.257 -68.9858 -16.5417 137.75 -81.8273C139.928 -84 144.279 -84 146.457 -84C155.163 -81.8273 159.514 -75.2987 159.514 -66.5922V-36.1273C159.514 -25.2429 155.163 -18.7144 146.457 -14.3637C57.2349 18.2791 -14.5793 87.9154 -47.2222 179.315ZM357.549 -73.1208C359.722 -81.8273 368.428 -86.1779 377.135 -81.8273C496.822 -42.6559 592.577 50.9219 631.749 174.965C697.034 381.701 583.871 601.499 377.135 666.785C374.957 668.958 370.606 668.958 368.428 668.958C359.722 666.785 355.371 660.256 355.371 651.55V621.085C355.371 610.201 359.722 603.672 368.428 599.321C457.65 566.679 529.464 497.042 562.107 405.642C625.22 238.072 538.171 48.744 368.428 -12.1858C361.9 -16.5416 355.371 -25.2429 355.371 -33.9494V-64.4143C355.371 -68.7702 355.371 -70.9429 357.549 -73.1208ZM263.973 255.484C355.372 266.363 401.072 292.478 401.072 368.643C401.072 427.4 357.55 473.1 292.265 483.984V536.213C290.087 547.092 283.558 553.62 274.852 553.62H242.209C231.33 551.442 224.801 544.914 224.801 536.213V483.984C152.987 473.1 118.166 433.928 109.465 379.527V377.349C109.465 368.643 115.993 362.114 124.695 362.114H161.693C168.222 362.114 174.751 366.47 176.923 375.171C183.452 407.814 203.037 431.756 259.622 431.756C300.966 431.756 331.436 407.819 331.436 372.999C331.436 338.178 311.85 325.121 250.915 314.241C159.515 303.357 115.993 275.07 115.993 203.256C115.993 148.849 157.338 105.327 222.623 96.6208V46.5702C224.801 35.6858 231.33 29.1572 240.036 29.1572H272.679C283.558 31.3352 290.087 37.8637 290.087 46.5702V98.7987C340.137 103.149 379.309 140.143 388.015 188.021V190.199C388.015 198.9 381.487 205.428 372.78 205.428H337.965C331.436 205.428 324.908 201.078 322.73 194.549C311.85 161.906 290.087 148.849 250.915 148.849C207.393 148.849 185.63 168.43 185.63 198.9C185.63 229.37 198.687 246.778 263.973 255.484Z" fill="url(#paint0_linear_1672_6561)"/>
<defs>
<linearGradient id="paint0_linear_1672_6561" x1="257.443" y1="-84" x2="257.443" y2="668.958" gradientUnits="userSpaceOnUse">
<stop stop-color="#0F4989"/>
<stop offset="1" stop-color="#0F4989" stop-opacity="0.1"/>
</linearGradient>
</defs>
</svg>
