<svg width="36" height="36" viewBox="0 0 36 36" fill="none" xmlns="http://www.w3.org/2000/svg">
<path id="Vector" d="M20.3589 33.4129C17.5227 33.4141 14.7292 32.726 12.222 31.4086C9.71471 30.0913 7.56977 28.1847 5.97408 25.855C7.19646 26.2049 8.7777 26.3007 10.5944 26.1514C13.6952 29.5443 18.2595 31.0886 22.5177 29.737C23.8705 29.3067 25.1202 28.6051 26.1893 27.6757C25.3463 28.2541 24.4215 28.7048 23.4451 29.0128C19.4258 30.2886 15.1341 28.9838 12.0579 25.9798C14.9995 25.5575 18.4233 24.568 21.9267 23.0348C28.8561 19.9974 33.9968 15.7376 35.0924 12.4662C33.6346 15.4825 28.9637 19.1918 22.8092 21.8894C18.4995 23.7836 14.3098 24.8009 11.0789 24.9123C9.92581 23.5115 9.05056 21.9061 8.49958 20.1813C8.15454 19.1098 7.93552 18.0023 7.8469 16.8809C9.52907 15.2351 11.8751 13.5537 14.6709 12.0506C12.003 13.3732 9.66813 14.8629 7.81662 16.3705C7.65401 12.4461 9.16235 8.77359 11.8538 6.43701C8.56574 8.70227 6.69517 12.7793 6.89367 17.1639C5.3685 18.5389 4.26724 19.8938 3.69754 21.1373C2.4291 16.9687 2.78805 12.4783 4.70286 8.56095C6.61767 4.64359 9.94773 1.58689 14.0294 0C11.0043 0.731888 8.21583 2.21547 5.92585 4.3115C3.63587 6.40753 1.91943 9.0473 0.937604 11.983C-0.0442168 14.9188 -0.259222 18.0543 0.312768 21.0952C0.884758 24.1361 2.22499 26.9828 4.20767 29.3681C6.19036 31.7533 8.7505 33.599 11.6478 34.7318C14.5451 35.8646 17.6846 36.2474 20.7716 35.8443C23.8587 35.4412 26.792 34.2655 29.2964 32.4273C31.8007 30.5892 33.794 28.149 35.0891 25.3358C33.5221 27.8104 31.3487 29.8494 28.7725 31.2621C26.1963 32.6747 23.3014 33.4148 20.3589 33.4129ZM6.93628 17.8458C7.18074 20.3848 8.09054 22.8159 9.57504 24.8967C7.35122 24.7541 5.77334 24.07 5.22047 22.8242C4.62834 21.486 5.31018 19.7177 6.93628 17.8458Z" fill="white"/>
</svg>
