<svg width="116" height="119" viewBox="0 0 116 119" fill="none" xmlns="http://www.w3.org/2000/svg">
<path id="Vector" d="M67.2974 110.448C57.9221 110.452 48.6882 108.178 40.4003 103.823C32.1125 99.4685 25.0223 93.1661 19.7477 85.4651C23.7883 86.6217 29.0152 86.9384 35.0205 86.4449C45.2704 97.6602 60.3579 102.765 74.4334 98.2974C78.9054 96.8748 83.0362 94.5557 86.5701 91.4835C83.7838 93.3956 80.7266 94.8852 77.4991 95.9034C64.2132 100.121 50.0265 95.8076 39.8581 85.8777C49.5816 84.4817 60.8991 81.211 72.4798 76.143C95.3854 66.1025 112.378 52.0216 116 41.2077C111.181 51.1782 95.7412 63.4396 75.3972 72.3566C61.1512 78.6181 47.3018 81.9808 36.6219 82.3492C32.8103 77.7187 29.9171 72.4119 28.0958 66.7103C26.9553 63.1686 26.2313 59.5077 25.9383 55.8006C31.4989 50.3605 39.2539 44.8025 48.4955 39.8339C39.6765 44.2059 31.9585 49.1303 25.8383 54.1137C25.3007 41.1414 30.2867 29.0016 39.1835 21.2779C28.3145 28.7659 22.1313 42.2427 22.7874 56.7361C17.7459 61.2812 14.1056 65.76 12.2224 69.8704C8.02954 56.091 9.21607 41.2478 15.5456 28.2987C21.8751 15.3496 32.8828 5.24556 46.3751 0C36.3752 2.4193 27.1579 7.32335 19.5882 14.2519C12.0186 21.1805 6.34477 29.9063 3.0993 39.6106C-0.146161 49.3149 -0.856872 59.6794 1.03387 69.7313C2.92462 79.7833 7.35482 89.1932 13.9087 97.0778C20.4626 104.962 28.9253 111.063 38.5025 114.808C48.0797 118.552 58.4575 119.818 68.6618 118.485C78.8661 117.153 88.5625 113.266 96.8408 107.19C105.119 101.114 111.708 93.0482 115.989 83.7488C110.809 91.9287 103.625 98.6689 95.1091 103.339C86.5932 108.008 77.0241 110.454 67.2974 110.448ZM22.9283 58.9902C23.7363 67.3831 26.7437 75.4191 31.6508 82.2976C24.2999 81.8261 19.0841 79.5647 17.2565 75.4468C15.2992 71.0233 17.5531 65.178 22.9283 58.9902Z" fill="url(#paint0_linear_1672_6539)"/>
<defs>
<linearGradient id="paint0_linear_1672_6539" x1="58" y1="0" x2="58" y2="119" gradientUnits="userSpaceOnUse">
<stop stop-color="#616ABC"/>
<stop offset="1" stop-color="#AFB5F1"/>
</linearGradient>
</defs>
</svg>
