<svg width="514" height="585" viewBox="0 0 514 585" fill="none" xmlns="http://www.w3.org/2000/svg">
<path d="M312.303 597.762C256.537 597.784 201.611 584.156 152.312 558.066C103.014 531.975 60.8396 494.214 29.4645 448.073C53.4993 455.002 84.5902 456.9 120.312 453.943C181.281 521.141 271.025 551.727 354.75 524.959C381.351 516.435 405.922 502.54 426.943 484.132C410.369 495.589 392.184 504.514 372.986 510.614C293.958 535.882 209.571 510.04 149.087 450.544C206.925 442.18 274.245 422.584 343.13 392.218C479.378 332.06 580.457 247.693 602 182.9C573.335 242.639 481.495 316.104 360.483 369.532C275.744 407.048 193.364 427.196 129.837 429.403C107.165 401.659 89.9554 369.863 79.1217 335.701C72.3375 314.481 68.0311 292.546 66.2885 270.335C99.3639 237.74 145.493 204.439 200.464 174.669C148.007 200.864 102.098 230.369 65.6931 260.227C62.4958 182.503 92.1534 109.766 145.074 63.4885C80.4227 108.353 43.6428 189.101 47.5457 275.94C17.5573 303.172 -4.09605 330.007 -15.2976 354.636C-40.2381 272.075 -33.1803 183.14 4.46931 105.554C42.1189 27.9688 107.596 -32.5707 187.852 -64C128.37 -49.5045 73.5425 -20.1215 28.5161 21.3917C-16.5103 62.9048 -50.2596 115.187 -69.5645 173.331C-88.8694 231.475 -93.0969 293.575 -81.8502 353.802C-70.6036 414.029 -44.2515 470.409 -5.26721 517.651C33.7171 564.893 84.0554 601.447 141.023 623.882C197.991 646.318 259.721 653.9 320.419 645.917C381.118 637.934 438.794 614.647 488.036 578.242C537.277 541.837 576.469 493.507 601.934 437.789C571.123 486.799 528.39 527.184 477.735 555.163C427.081 583.141 370.16 597.798 312.303 597.762ZM48.3836 289.446C53.1903 339.733 71.0791 387.881 100.268 429.094C56.5422 426.269 25.5175 412.719 14.6467 388.047C3.00415 361.543 16.4107 326.521 48.3836 289.446Z" fill="url(#paint0_linear_1672_6545)"/>
<defs>
<linearGradient id="paint0_linear_1672_6545" x1="257" y1="-64" x2="257" y2="649" gradientUnits="userSpaceOnUse">
<stop stop-color="#1C2258"/>
<stop offset="1" stop-color="#1C2258" stop-opacity="0.1"/>
</linearGradient>
</defs>
</svg>
