<svg width="160" height="142" viewBox="0 0 160 142" fill="none" xmlns="http://www.w3.org/2000/svg">
<g id="OBJECTS" opacity="0.12" clip-path="url(#clip0_373_4341)">
<g id="Group">
<path id="Subtract" fill-rule="evenodd" clip-rule="evenodd" d="M66.0421 8.0086L2.16311 118.101C-3.99572 128.744 3.74064 142 16.1231 142H143.881C156.264 142 164 128.723 157.841 118.101L93.9621 8.0086C87.7817 -2.65586 72.2441 -2.65586 66.0637 8.0086H66.0421ZM80.0001 30.0445C80.0001 30.0445 68.871 30.0445 68.871 41.7154C68.871 51.5019 74.4463 103.689 74.4463 103.689C74.4463 103.689 75.2027 106.944 80.0217 107.201C84.8407 106.944 85.5971 103.689 85.5971 103.689C85.5971 103.689 91.1724 51.5019 91.1724 41.7154C91.1724 30.0445 80.0433 30.0445 80.0433 30.0445H80.0001ZM80.0003 127.974C84.56 127.974 88.2553 124.312 88.2553 119.793C88.2553 115.275 84.56 111.613 80.0003 111.613C75.4406 111.613 71.7453 115.275 71.7453 119.793C71.7453 124.312 75.4406 127.974 80.0003 127.974Z" fill="#2B8AC8"/>
</g>
</g>
<defs>
<clipPath id="clip0_373_4341">
<rect width="160" height="142" fill="white"/>
</clipPath>
</defs>
</svg>
