<svg width="18" height="21" viewBox="0 0 18 21" fill="none" xmlns="http://www.w3.org/2000/svg">
<g id="Group 11321">
<g id="Group">
<g id="Group_2">
<path id="Vector" d="M12.5429 0C12.5915 0 12.6402 0 12.6916 0C12.8109 1.47436 12.2482 2.576 11.5643 3.37377C10.8932 4.16603 9.97422 4.93443 8.48792 4.81784C8.38878 3.36459 8.95245 2.34466 9.63547 1.54872C10.2689 0.806951 11.4302 0.146885 12.5429 0Z" fill="url(#paint0_radial_1802_5176)"/>
<path id="Vector_2" d="M17.0442 15.1341C17.0442 15.1487 17.0442 15.1616 17.0442 15.1754C16.6265 16.4404 16.0307 17.5246 15.3036 18.5308C14.6399 19.4442 13.8265 20.6735 12.3742 20.6735C11.1192 20.6735 10.2856 19.8665 8.99948 19.8445C7.63895 19.8224 6.89075 20.5192 5.64682 20.6946C5.50452 20.6946 5.36223 20.6946 5.22269 20.6946C4.30925 20.5624 3.57207 19.839 3.03502 19.1872C1.45141 17.2611 0.227672 14.7733 0 11.5895C0 11.2774 0 10.9662 0 10.6541C0.0963934 8.37549 1.20354 6.5229 2.67515 5.62507C3.4518 5.14769 4.51947 4.741 5.70833 4.92277C6.21784 5.00172 6.73836 5.17615 7.19462 5.34874C7.62702 5.5149 8.16774 5.80959 8.68 5.79399C9.02702 5.78389 9.3722 5.60303 9.72197 5.47543C10.7465 5.10546 11.7508 4.68133 13.0746 4.88054C14.6656 5.12107 15.7948 5.82795 16.4925 6.91858C15.1466 7.7751 14.0826 9.06585 14.2644 11.2701C14.426 13.2723 15.59 14.4437 17.0442 15.1341Z" fill="url(#paint1_radial_1802_5176)"/>
</g>
</g>
</g>
<defs>
<radialGradient id="paint0_radial_1802_5176" cx="0" cy="0" r="1" gradientUnits="userSpaceOnUse" gradientTransform="translate(8.47656) rotate(66.3448) scale(5.27264 5.90433)">
<stop stop-color="#449ECF"/>
<stop offset="0.252598" stop-color="#449ECF"/>
<stop offset="0.545703" stop-color="#68BCC7"/>
<stop offset="0.780808" stop-color="#76C9BC"/>
<stop offset="0.859126" stop-color="#7BD2AA"/>
<stop offset="1" stop-color="#7BD2AA"/>
</radialGradient>
<radialGradient id="paint1_radial_1802_5176" cx="0" cy="0" r="1" gradientUnits="userSpaceOnUse" gradientTransform="translate(0 4.82959) rotate(61.7569) scale(18.009 22.875)">
<stop stop-color="#449ECF"/>
<stop offset="0.252598" stop-color="#449ECF"/>
<stop offset="0.545703" stop-color="#68BCC7"/>
<stop offset="0.780808" stop-color="#76C9BC"/>
<stop offset="0.859126" stop-color="#7BD2AA"/>
<stop offset="1" stop-color="#7BD2AA"/>
</radialGradient>
</defs>
</svg>
