<svg width="25" height="24" viewBox="0 0 25 24" fill="none" xmlns="http://www.w3.org/2000/svg">
<g id="Group 11132">
<g id="Group">
<g id="Group_2">
<path id="Subtract" fill-rule="evenodd" clip-rule="evenodd" d="M12.0365 21.656C17.5019 21.8367 22.0787 17.5527 22.2593 12.0879C22.4398 6.6228 18.1559 2.04505 12.6908 1.86453C7.22688 1.68378 2.65016 5.96807 2.47034 11.4334C2.28912 16.898 6.57317 21.4751 12.0365 21.656ZM9.09693 14.4309C9.4137 14.4409 9.50508 14.2162 9.52968 14.0741L9.69624 9.03702C9.66081 8.80847 9.52198 8.54043 9.06863 8.52531C9.08288 8.51054 8.25585 8.49898 8.25585 8.49898L8.29509 7.30362L9.83874 7.35516L9.83871 7.36088C10.0708 7.36838 10.3088 7.37177 10.5513 7.37483L10.6125 5.53666L11.7311 5.57367L11.6714 7.37577C11.9704 7.3797 12.2713 7.38383 12.5656 7.39352L12.6247 5.60327L13.7439 5.64015L13.6831 7.47887C15.1237 7.6532 16.2533 8.13541 16.3369 9.46521C16.3997 10.4383 15.9748 11.0071 15.315 11.3161C16.3746 11.6079 17.0229 12.2649 16.8438 13.6833C16.6219 15.4448 15.2893 15.8753 13.4041 15.9211L13.3424 17.7774L12.2232 17.7406L12.2842 15.9091C11.9942 15.8997 11.6972 15.8875 11.3904 15.871L11.3296 17.711L10.2116 17.6739L10.2726 15.8142C10.1687 15.8101 10.064 15.8055 9.95857 15.8009C9.79849 15.7939 9.63671 15.7868 9.47331 15.7812L8.01684 15.7331L8.28338 14.4038C8.28338 14.4038 9.11086 14.4441 9.09693 14.4309ZM11.6801 14.5278C12.5961 14.5708 14.5981 14.6648 14.6396 13.3898C14.6828 12.086 12.7568 12.0678 11.8171 12.059C11.7121 12.058 11.6194 12.0571 11.5432 12.0546L11.4614 14.5185C11.5241 14.5205 11.5977 14.5239 11.6801 14.5278ZM11.7644 10.935C12.5286 10.9728 14.1954 11.0554 14.234 9.89636C14.2731 8.71094 12.668 8.70041 11.8842 8.69527C11.796 8.69469 11.7182 8.69418 11.6543 8.69208L11.5804 10.9267C11.633 10.9285 11.695 10.9316 11.7644 10.935Z" fill="url(#paint0_radial_1802_5170)"/>
</g>
</g>
</g>
<defs>
<radialGradient id="paint0_radial_1802_5170" cx="0" cy="0" r="1" gradientUnits="userSpaceOnUse" gradientTransform="translate(0.605469 4.15381) rotate(51.3308) scale(22.1442 26.9869)">
<stop stop-color="#449ECF"/>
<stop offset="0.252598" stop-color="#449ECF"/>
<stop offset="0.545703" stop-color="#68BCC7"/>
<stop offset="0.780808" stop-color="#76C9BC"/>
<stop offset="0.859126" stop-color="#7BD2AA"/>
<stop offset="1" stop-color="#7BD2AA"/>
</radialGradient>
</defs>
</svg>
