<svg width="23" height="23" viewBox="0 0 23 23" fill="none" xmlns="http://www.w3.org/2000/svg">
<g id="Frame" clip-path="url(#clip0_1802_5150)">
<path id="Vector" d="M8 12.375L10.625 15L15 8.875M22 11.5C22 12.8789 21.7284 14.2443 21.2007 15.5182C20.6731 16.7921 19.8996 17.9496 18.9246 18.9246C17.9496 19.8996 16.7921 20.6731 15.5182 21.2007C14.2443 21.7284 12.8789 22 11.5 22C10.1211 22 8.75574 21.7284 7.48182 21.2007C6.20791 20.6731 5.05039 19.8996 4.07538 18.9246C3.10036 17.9496 2.32694 16.7921 1.79926 15.5182C1.27159 14.2443 1 12.8789 1 11.5C1 8.71523 2.10625 6.04451 4.07538 4.07538C6.04451 2.10625 8.71523 1 11.5 1C14.2848 1 16.9555 2.10625 18.9246 4.07538C20.8938 6.04451 22 8.71523 22 11.5Z" stroke="url(#paint0_radial_1802_5150)" stroke-width="1.5" stroke-linecap="round" stroke-linejoin="round"/>
</g>
<defs>
<radialGradient id="paint0_radial_1802_5150" cx="0" cy="0" r="1" gradientUnits="userSpaceOnUse" gradientTransform="translate(1 1) rotate(63.4349) scale(23.4787 28.6153)">
<stop stop-color="#449ECF"/>
<stop offset="0.252598" stop-color="#449ECF"/>
<stop offset="0.545703" stop-color="#68BCC7"/>
<stop offset="0.780808" stop-color="#76C9BC"/>
<stop offset="0.859126" stop-color="#7BD2AA"/>
<stop offset="1" stop-color="#7BD2AA"/>
</radialGradient>
<clipPath id="clip0_1802_5150">
<rect width="23" height="23" fill="white"/>
</clipPath>
</defs>
</svg>
