<svg width="134" height="134" viewBox="0 0 134 134" fill="none" xmlns="http://www.w3.org/2000/svg">
<g id="Group 10052">
<path id="Ellipse 518" d="M115.947 68.819C116.264 60.4391 114.427 52.1179 110.61 44.651C106.793 37.1841 101.124 30.8213 94.146 26.1708C87.1678 21.5204 79.1132 18.7379 70.7524 18.0894C62.3916 17.4409 54.0043 18.9481 46.3924 22.4669L50.5272 31.4114C56.609 28.6 63.3103 27.3958 69.9904 27.9139C76.6705 28.432 83.1059 30.6552 88.6814 34.3708C94.2569 38.0864 98.786 43.1702 101.836 49.1361C104.885 55.102 106.353 61.7505 106.1 68.4458L115.947 68.819Z" fill="#D8F1FF"/>
<path id="Ellipse 521" d="M115.947 68.819C116.196 62.2375 115.117 55.6732 112.773 49.5182L103.564 53.0249C105.436 57.9426 106.299 63.1874 106.1 68.4458L115.947 68.819Z" fill="white"/>
<path id="Ellipse 522" opacity="0.4" d="M18.0283 64.0678C17.6456 70.5372 18.5494 77.0182 20.6876 83.136C22.8258 89.2538 26.1558 94.8869 30.485 99.7095C34.8143 104.532 40.0568 108.448 45.9093 111.232C51.7618 114.015 58.1082 115.61 64.5812 115.925C71.0542 116.24 77.5255 115.268 83.6205 113.066C89.7156 110.864 95.3134 107.475 100.09 103.095C104.867 98.7158 108.728 93.4325 111.45 87.5511C114.172 81.6697 115.701 75.307 115.948 68.831L106.101 68.4555C105.903 73.6297 104.682 78.7134 102.507 83.4125C100.333 88.1116 97.2477 92.3329 93.4311 95.8321C89.6144 99.3313 85.1418 102.039 80.272 103.798C75.4022 105.558 70.2318 106.334 65.06 106.083C59.8882 105.831 54.8176 104.557 50.1415 102.333C45.4655 100.109 41.2768 96.9799 37.8178 93.1268C34.3588 89.2737 31.6982 84.7729 29.9898 79.8849C28.2815 74.9969 27.5593 69.8187 27.8651 64.6498L18.0283 64.0678Z" fill="white"/>
<path id="Ellipse 520" d="M106.576 38.09C101.637 31.313 95.0419 25.9166 87.4214 22.4165C79.8009 18.9164 71.4099 17.4299 63.0508 18.0989C54.6916 18.7679 46.6439 21.5702 39.677 26.2377C32.7102 30.9053 27.0573 37.2821 23.2588 44.7583L32.4791 49.443C35.4763 43.5441 39.9365 38.5127 45.4335 34.8299C50.9305 31.1471 57.2803 28.936 63.8759 28.4082C70.4714 27.8803 77.0921 29.0532 83.1048 31.8149C89.1176 34.5765 94.3213 38.8344 98.2185 44.1815L106.576 38.09Z" fill="#A0DBFC"/>
<path id="Ellipse 517" d="M97.3361 28.4873C90.7541 23.2911 82.9492 19.8704 74.6675 18.5521C66.3859 17.2338 57.9046 18.0622 50.0346 20.9579C42.1645 23.8536 35.1689 28.7198 29.7166 35.0913C24.2644 41.4628 20.5378 49.1264 18.8933 57.3495L29.0347 59.3777C30.3323 52.8896 33.2726 46.8428 37.5746 41.8155C41.8765 36.7883 47.3962 32.9487 53.6058 30.664C59.8154 28.3792 66.5074 27.7256 73.0417 28.7658C79.5761 29.8059 85.7344 32.5049 90.9277 36.6048L97.3361 28.4873Z" fill="#80CCDC"/>
<path id="Ellipse 519" d="M93.7236 25.8925C86.6977 21.3143 78.6148 18.6151 70.2478 18.0529C61.8808 17.4907 53.5094 19.0844 45.9343 22.6815C38.3591 26.2787 31.8334 31.759 26.9811 38.5985C22.1288 45.4379 19.1122 53.4078 18.2198 61.7461L28.5033 62.8467C29.2074 56.2676 31.5876 49.9792 35.4161 44.5827C39.2447 39.1863 44.3936 34.8622 50.3706 32.024C56.3476 29.1858 62.9527 27.9283 69.5545 28.3719C76.1562 28.8154 82.5338 30.9452 88.0774 34.5574L93.7236 25.8925Z" fill="#95E7C4"/>
<path id="Ellipse 516" d="M51.1244 19.6415C44.2011 22.005 37.8946 25.888 32.6674 31.006C27.4401 36.1239 23.4246 42.3469 20.9153 49.2187C18.406 56.0904 17.4666 63.4367 18.1659 70.7187C18.8652 78.0008 21.1855 85.034 24.9566 91.3027C28.7278 97.5713 33.8542 102.916 39.9599 106.946C46.0656 110.976 52.9958 113.588 60.2423 114.59C67.4888 115.593 74.8679 114.961 81.8385 112.741C88.809 110.521 95.1942 106.769 100.526 101.76L91.6704 92.3337C87.7454 96.0211 83.0448 98.7833 77.9134 100.418C72.7819 102.052 67.3497 102.517 62.0151 101.779C56.6805 101.041 51.5787 99.1181 47.0839 96.1516C42.5891 93.1852 38.8153 89.2503 36.0391 84.6356C33.2629 80.0208 31.5548 74.8432 31.04 69.4824C30.5252 64.1217 31.2168 58.7136 33.064 53.6549C34.9113 48.5961 37.8673 44.015 41.7154 40.2474C45.5636 36.4797 50.2062 33.6212 55.3028 31.8813L51.1244 19.6415Z" fill="#80D7A4"/>
</g>
</svg>
