<svg width="5" height="23" viewBox="0 0 5 23" fill="none" xmlns="http://www.w3.org/2000/svg">
<g id="Group 8967" opacity="0.3">
<g id="Group">
<path id="Vector" d="M5 2.5C5 1.14409 3.85591 -5.00096e-08 2.5 -1.09278e-07C1.10163 -1.70403e-07 1.3805e-06 1.14409 1.32123e-06 2.5C1.26011e-06 3.89837 1.14409 5 2.5 5C3.85591 5 5 3.89837 5 2.5Z" fill="#171A20"/>
<path id="Vector_2" d="M5 20.5C5 19.1016 3.85591 18 2.5 18C1.10163 18 1.3805e-06 19.1441 1.32123e-06 20.5C1.26196e-06 21.8559 1.10163 23 2.5 23C3.85591 23 5 21.8559 5 20.5Z" fill="#171A20"/>
<path id="Vector_3" d="M5 11.5C5 10.1016 3.85591 9 2.5 9C1.10163 9 1.3805e-06 10.1441 1.32123e-06 11.5C1.26011e-06 12.8984 1.14409 14 2.5 14C3.85591 14 5 12.8982 5 11.5Z" fill="#171A20"/>
</g>
</g>
</svg>
