<svg width="16" height="16" viewBox="0 0 16 16" fill="none" xmlns="http://www.w3.org/2000/svg">
<path id="Vector" d="M9.2824 14.8502C7.98926 14.8507 6.71561 14.5449 5.57246 13.9594C4.42931 13.3739 3.45135 12.5265 2.72381 11.4911C3.28114 11.6466 4.00209 11.6892 4.83041 11.6228C6.24419 13.1308 8.32522 13.8172 10.2667 13.2165C10.8835 13.0252 11.4533 12.7134 11.9407 12.3003C11.5564 12.5574 11.1347 12.7577 10.6895 12.8946C8.85699 13.4616 6.9002 12.8817 5.49768 11.5466C6.83884 11.3589 8.39988 10.9191 9.99721 10.2377C13.1566 8.88773 15.5005 6.9945 16 5.54053C15.3353 6.8811 13.2057 8.52969 10.3996 9.72862C8.43464 10.5705 6.52439 11.0226 5.0513 11.0722C4.52556 10.4496 4.1265 9.73606 3.87529 8.96945C3.71797 8.49326 3.61811 8.00103 3.5777 7.5026C4.34467 6.77116 5.41433 6.02387 6.68903 5.35582C5.47262 5.94364 4.40807 6.60575 3.5639 7.27579C3.48976 5.53162 4.17747 3.89937 5.40462 2.86089C3.90545 3.86768 3.05259 5.67969 3.14309 7.62839C2.44771 8.23949 1.9456 8.84168 1.68585 9.39435C1.10752 7.54165 1.27118 5.54592 2.14422 3.80487C3.01725 2.06382 4.53555 0.705285 6.39656 0C5.01726 0.325284 3.74591 0.984652 2.70182 1.91622C1.65773 2.84779 0.87514 4.02102 0.42749 5.3258C-0.0201601 6.63057 -0.118189 8.02411 0.142603 9.37564C0.403395 10.7272 1.01446 11.9924 1.91844 13.0525C2.82243 14.1126 3.98969 14.9329 5.31069 15.4364C6.63168 15.9398 8.0631 16.11 9.47059 15.9308C10.8781 15.7517 12.2155 15.2291 13.3573 14.4122C14.4992 13.5952 15.408 12.5107 15.9985 11.2603C15.284 12.3602 14.2931 13.2664 13.1185 13.8943C11.9439 14.5221 10.624 14.851 9.2824 14.8502ZM3.16252 7.93146C3.27398 9.05992 3.68879 10.1404 4.36563 11.0652C3.3517 11.0018 2.63229 10.6978 2.38021 10.1441C2.11024 9.54935 2.42112 8.76343 3.16252 7.93146Z" fill="url(#paint0_radial_1069_1373)"/>
<defs>
<radialGradient id="paint0_radial_1069_1373" cx="0" cy="0" r="1" gradientUnits="userSpaceOnUse" gradientTransform="rotate(63.4349) scale(17.8885 21.8021)">
<stop stop-color="#449ECF"/>
<stop offset="0.252598" stop-color="#449ECF"/>
<stop offset="0.545703" stop-color="#68BCC7"/>
<stop offset="0.780808" stop-color="#76C9BC"/>
<stop offset="0.859126" stop-color="#7BD2AA"/>
<stop offset="1" stop-color="#7BD2AA"/>
</radialGradient>
</defs>
</svg>
