<svg width="61" height="61" viewBox="0 0 61 61" fill="none" xmlns="http://www.w3.org/2000/svg">
<g id="Group 11326">
<rect id="Rectangle 4206" opacity="0.05" width="61" height="61" rx="6" fill="#2B8AC8"/>
<path id="Vector" d="M32.1831 39.4909C30.4859 39.4915 28.8142 39.0902 27.3139 38.3217C25.8135 37.5533 24.5299 36.4411 23.575 35.0821C24.3065 35.2862 25.2527 35.3421 26.3399 35.255C28.1955 37.2342 30.9269 38.135 33.475 37.3466C34.2846 37.0956 35.0324 36.6863 35.6722 36.1441C35.1678 36.4816 34.6143 36.7444 34.03 36.9241C31.6248 37.6683 29.0565 36.9072 27.2157 35.1549C28.976 34.9085 31.0248 34.3314 33.1213 33.437C37.268 31.6652 40.3443 29.1803 41 27.272C40.1276 29.0314 37.3325 31.1952 33.6495 32.7688C31.0705 33.8738 28.5633 34.4672 26.6298 34.5322C25.9398 33.7151 25.416 32.7786 25.0863 31.7724C24.8798 31.1474 24.7488 30.5014 24.6957 29.8472C25.7024 28.8871 27.1063 27.9063 28.7794 27.0295C27.1828 27.801 25.7856 28.6701 24.6776 29.5495C24.5803 27.2603 25.4829 25.1179 27.0936 23.7549C25.1259 25.0763 24.0065 27.4546 24.1253 30.0123C23.2126 30.8143 22.5536 31.6047 22.2127 32.3301C21.4536 29.8984 21.6684 27.279 22.8143 24.9939C23.9601 22.7088 25.9529 20.9257 28.3955 20C26.5852 20.4269 24.9165 21.2924 23.5461 22.515C22.1758 23.7377 21.1486 25.2776 20.5611 26.9901C19.9735 28.7026 19.8449 30.5317 20.1872 32.3055C20.5295 34.0794 21.3315 35.74 22.518 37.1314C23.7044 38.5228 25.2365 39.5994 26.9703 40.2602C28.7041 40.921 30.5828 41.1443 32.4302 40.9092C34.2775 40.6741 36.0329 39.9882 37.5315 38.916C39.0302 37.8437 40.223 36.4203 40.998 34.7792C40.0603 36.2227 38.7597 37.4122 37.218 38.2362C35.6764 39.0603 33.944 39.492 32.1831 39.4909ZM24.1508 30.41C24.2971 31.8911 24.8415 33.3093 25.7299 34.5231C24.3991 34.4399 23.4549 34.0408 23.124 33.3141C22.7697 32.5335 23.1777 31.502 24.1508 30.41Z" fill="url(#paint0_radial_1022_1092)"/>
</g>
<defs>
<radialGradient id="paint0_radial_1022_1092" cx="0" cy="0" r="1" gradientUnits="userSpaceOnUse" gradientTransform="translate(20 20) rotate(63.4349) scale(23.4787 28.6153)">
<stop stop-color="#449ECF"/>
<stop offset="0.252598" stop-color="#449ECF"/>
<stop offset="0.545703" stop-color="#68BCC7"/>
<stop offset="0.780808" stop-color="#76C9BC"/>
<stop offset="0.859126" stop-color="#7BD2AA"/>
<stop offset="1" stop-color="#7BD2AA"/>
</radialGradient>
</defs>
</svg>
