<svg width="61" height="61" viewBox="0 0 61 61" fill="none" xmlns="http://www.w3.org/2000/svg">
<g id="Group 11298">
<rect id="Rectangle 4206" opacity="0.05" width="61" height="61" rx="6" fill="#2B8AC8"/>
<g id="Group 11296">
<path id="Union" fill-rule="evenodd" clip-rule="evenodd" d="M24.75 21L24.6343 21C23.8163 20.9998 23.2581 20.9996 22.7795 21.1278C21.4854 21.4746 20.4746 22.4854 20.1278 23.7795C19.9996 24.2581 19.9998 24.8163 20 25.6343L20 25.75V32.75L20 32.8049C20 34.1725 20 35.2748 20.1166 36.1418C20.2376 37.0419 20.4965 37.7998 21.0984 38.4017C21.7003 39.0036 22.4582 39.2625 23.3583 39.3835C24.2253 39.5001 25.3276 39.5001 26.6952 39.5H26.75H34.75H34.8049C36.1725 39.5001 37.2748 39.5001 38.1418 39.3835C39.0419 39.2625 39.7998 39.0036 40.4017 38.4017C41.0036 37.7998 41.2625 37.0419 41.3835 36.1418C41.5001 35.2748 41.5001 34.1725 41.5 32.8049V32.75V30.75V30.6952C41.5001 29.3276 41.5001 28.2253 41.3835 27.3583C41.2625 26.4582 41.0036 25.7003 40.4017 25.0984C39.7998 24.4965 39.0419 24.2376 38.1418 24.1166C37.2748 24 36.1725 24 34.8049 24L34.75 24H33.8714C32.9638 24 32.6548 23.9934 32.3759 23.9139C32.2098 23.8665 32.0497 23.8002 31.8988 23.7162C31.6453 23.5752 31.4221 23.3615 30.7804 22.7197L30.7092 22.6485L30.7092 22.6485C30.1662 22.1051 29.79 21.7287 29.3306 21.4731C29.079 21.3331 28.8122 21.2226 28.5354 21.1437C28.0298 20.9996 27.4976 20.9998 26.7295 21L26.6287 21H24.75ZM21.5 32.75V25.75C21.5 24.7718 21.5065 24.4298 21.5767 24.1677C21.7848 23.3912 22.3912 22.7848 23.1677 22.5767C23.4298 22.5065 23.7718 22.5 24.75 22.5H26.6287C27.5363 22.5 27.8453 22.5067 28.1242 22.5862C28.2903 22.6336 28.4504 22.6999 28.6013 22.7839C28.8548 22.9249 29.078 23.1386 29.7197 23.7804L29.7909 23.8516L29.7909 23.8516C30.3339 24.395 30.7101 24.7714 31.1695 25.027C31.4211 25.167 31.6879 25.2775 31.9647 25.3564C32.4703 25.5005 33.0025 25.5003 33.7706 25.5001L33.8714 25.5H34.75C36.1855 25.5 37.1866 25.5016 37.9419 25.6032C38.6757 25.7018 39.0643 25.8823 39.341 26.1591C39.6178 26.4358 39.7982 26.8244 39.8969 27.5582C39.9985 28.3135 40 29.3146 40 30.75V32.75C40 34.1855 39.9985 35.1866 39.8969 35.9419C39.7982 36.6757 39.6178 37.0643 39.341 37.341C39.0643 37.6178 38.6757 37.7982 37.9419 37.8969C37.1866 37.9985 36.1855 38 34.75 38H26.75C25.3146 38 24.3135 37.9985 23.5582 37.8969C22.8244 37.7982 22.4358 37.6178 22.1591 37.341C21.8823 37.0643 21.7018 36.6757 21.6032 35.9419C21.5016 35.1866 21.5 34.1855 21.5 32.75ZM34.7804 29.7805C35.0733 29.4876 35.0733 29.0127 34.7804 28.7198C34.4875 28.4269 34.0126 28.4269 33.7197 28.7198L29.75 32.6895L28.2804 31.2198C27.9875 30.9269 27.5126 30.9269 27.2197 31.2198C26.9268 31.5127 26.9268 31.9876 27.2197 32.2805L29.2197 34.2805C29.5126 34.5734 29.9875 34.5734 30.2804 34.2805L34.7804 29.7805Z" fill="url(#paint0_radial_1666_2601)"/>
</g>
</g>
<defs>
<radialGradient id="paint0_radial_1666_2601" cx="0" cy="0" r="1" gradientUnits="userSpaceOnUse" gradientTransform="translate(20 21) rotate(59.8399) scale(21.3966 28.3205)">
<stop stop-color="#449ECF"/>
<stop offset="0.252598" stop-color="#449ECF"/>
<stop offset="0.545703" stop-color="#68BCC7"/>
<stop offset="0.780808" stop-color="#76C9BC"/>
<stop offset="0.859126" stop-color="#7BD2AA"/>
<stop offset="1" stop-color="#7BD2AA"/>
</radialGradient>
</defs>
</svg>
