<svg width="61" height="61" viewBox="0 0 61 61" fill="none" xmlns="http://www.w3.org/2000/svg">
<g id="Group 11233">
<g id="Group 11231">
<rect id="Rectangle 4206" opacity="0.05" width="61" height="61" rx="6" fill="#2B8AC8"/>
<g id="Group 10519">
<g id="layer1">
<path id="path9429" d="M30.1831 37.9997C30.3698 38.0046 30.5531 37.9404 30.7075 37.8158C30.862 37.6912 30.9799 37.5125 31.0449 37.3046C31.1099 37.0968 31.1188 36.8701 31.0703 36.6559C31.0218 36.4418 30.9184 36.251 30.7743 36.11L25.2781 30.5176L30.7743 24.9271C30.874 24.8402 30.9574 24.7297 31.0194 24.6027C31.0815 24.4756 31.1207 24.3347 31.1348 24.1887C31.1489 24.0428 31.1374 23.895 31.1011 23.7546C31.0649 23.6142 31.0046 23.4841 30.9241 23.3727C30.8435 23.2612 30.7445 23.1708 30.6331 23.1069C30.5218 23.043 30.4005 23.0071 30.277 23.0014C30.1534 22.9958 30.0302 23.0204 29.915 23.0739C29.7999 23.1274 29.6952 23.2086 29.6077 23.3124L23.3151 29.7071C23.2162 29.8072 23.1369 29.9315 23.0825 30.0716C23.0281 30.2118 22.9999 30.3643 22.9999 30.5186C22.9999 30.6729 23.0281 30.8254 23.0825 30.9655C23.1369 31.1056 23.2162 31.23 23.3151 31.3302L29.6077 37.731C29.7667 37.8987 29.9706 37.994 30.1831 38L30.1831 37.9997Z" fill="url(#paint0_radial_1666_646)"/>
</g>
<g id="layer1_2">
<path id="path9429_2" d="M38.3237 37.9988C38.5104 38.0036 38.6937 37.9394 38.8481 37.8148C39.0026 37.6902 39.1205 37.5115 39.1855 37.3037C39.2506 37.0958 39.2595 36.8691 39.211 36.655C39.1625 36.4408 39.059 36.2501 38.9149 36.109L33.4187 30.5166L38.9149 24.9262C39.0146 24.8392 39.098 24.7288 39.1601 24.6017C39.2221 24.4746 39.2614 24.3337 39.2754 24.1878C39.2895 24.0418 39.278 23.8941 39.2418 23.7536C39.2055 23.6132 39.1452 23.4832 39.0647 23.3717C38.9842 23.2602 38.8851 23.1698 38.7738 23.1059C38.6624 23.042 38.5412 23.0061 38.4176 23.0005C38.294 22.9948 38.1708 23.0194 38.0556 23.0729C37.9405 23.1265 37.8359 23.2076 37.7483 23.3114L31.4557 29.7061C31.3569 29.8062 31.2775 29.9306 31.2231 30.0707C31.1687 30.2108 31.1405 30.3633 31.1405 30.5176C31.1405 30.6719 31.1687 30.8244 31.2231 30.9645C31.2775 31.1046 31.3569 31.229 31.4557 31.3292L37.7483 37.73C37.9073 37.8977 38.1112 37.9931 38.3237 37.999L38.3237 37.9988Z" fill="url(#paint1_radial_1666_646)"/>
</g>
</g>
</g>
</g>
<defs>
<radialGradient id="paint0_radial_1666_646" cx="0" cy="0" r="1" gradientUnits="userSpaceOnUse" gradientTransform="translate(31.1406 38) rotate(-105.183) scale(15.5418 11.9693)">
<stop stop-color="#449ECF"/>
<stop offset="0.252598" stop-color="#449ECF"/>
<stop offset="0.545703" stop-color="#68BCC7"/>
<stop offset="0.780808" stop-color="#76C9BC"/>
<stop offset="0.859126" stop-color="#7BD2AA"/>
<stop offset="1" stop-color="#7BD2AA"/>
</radialGradient>
<radialGradient id="paint1_radial_1666_646" cx="0" cy="0" r="1" gradientUnits="userSpaceOnUse" gradientTransform="translate(39.2812 37.999) rotate(-105.183) scale(15.5418 11.9693)">
<stop stop-color="#449ECF"/>
<stop offset="0.252598" stop-color="#449ECF"/>
<stop offset="0.545703" stop-color="#68BCC7"/>
<stop offset="0.780808" stop-color="#76C9BC"/>
<stop offset="0.859126" stop-color="#7BD2AA"/>
<stop offset="1" stop-color="#7BD2AA"/>
</radialGradient>
</defs>
</svg>
