<svg width="6" height="10" viewBox="0 0 6 10" fill="none" xmlns="http://www.w3.org/2000/svg">
<path id="Vector" d="M4.96261 0.0827646C5.1027 0.083352 5.23946 0.125466 5.35562 0.203781C5.47177 0.282097 5.5621 0.393096 5.61517 0.522744C5.66824 0.652392 5.68168 0.794867 5.65378 0.932151C5.62588 1.06944 5.5579 1.19536 5.45844 1.29401L1.71136 5.0411L5.45844 8.78819C5.52483 8.85404 5.57753 8.93238 5.61349 9.0187C5.64945 9.10501 5.66796 9.1976 5.66796 9.2911C5.66796 9.38461 5.64945 9.4772 5.61349 9.56351C5.57753 9.64983 5.52483 9.72817 5.45844 9.79402C5.32572 9.92595 5.1462 10 4.95906 10C4.77193 10 4.5924 9.92595 4.45969 9.79402L0.209695 5.54402C0.143305 5.47817 0.090609 5.39983 0.0546479 5.31351C0.0186867 5.22719 0.000172087 5.13461 0.000172095 5.0411C0.000172103 4.94759 0.0186867 4.85501 0.0546479 4.76869C0.0906091 4.68238 0.143305 4.60403 0.209695 4.53818L4.45969 0.288182C4.52588 0.222533 4.60437 0.170593 4.69067 0.135343C4.77697 0.100093 4.86939 0.0822257 4.96261 0.0827646Z" fill="url(#paint0_radial_1802_5005)"/>
<defs>
<radialGradient id="paint0_radial_1802_5005" cx="0" cy="0" r="1" gradientUnits="userSpaceOnUse" gradientTransform="translate(5.66797 10) rotate(-105.948) scale(10.3142 8.30239)">
<stop stop-color="#449ECF"/>
<stop offset="0.252598" stop-color="#449ECF"/>
<stop offset="0.545703" stop-color="#68BCC7"/>
<stop offset="0.780808" stop-color="#76C9BC"/>
<stop offset="0.859126" stop-color="#7BD2AA"/>
<stop offset="1" stop-color="#7BD2AA"/>
</radialGradient>
</defs>
</svg>
