<svg width="6" height="10" viewBox="0 0 6 10" fill="none" xmlns="http://www.w3.org/2000/svg">
<path id="Vector" d="M0.705363 9.91724C0.565274 9.91665 0.428505 9.87453 0.31235 9.79622C0.196195 9.7179 0.105871 9.6069 0.0527987 9.47726C-0.000273501 9.34761 -0.01371 9.20513 0.0141878 9.06785C0.0420856 8.93056 0.110065 8.80464 0.20953 8.70599L3.95661 4.9589L0.20953 1.21181C0.143139 1.14596 0.0904432 1.06762 0.0544821 0.981304C0.018521 0.894987 6.61805e-06 0.802404 6.61805e-06 0.708895C6.61805e-06 0.615387 0.018521 0.522803 0.0544821 0.436486C0.0904432 0.350169 0.143139 0.271827 0.20953 0.205978C0.342245 0.0740503 0.521773 0 0.708904 0C0.896036 0 1.07556 0.0740503 1.20828 0.205978L5.45827 4.45598C5.52466 4.52183 5.57736 4.60017 5.61332 4.68649C5.64928 4.77281 5.6678 4.86539 5.6678 4.9589C5.6678 5.05241 5.64928 5.14499 5.61332 5.23131C5.57736 5.31762 5.52466 5.39597 5.45827 5.46182L1.20828 9.71182C1.14209 9.77747 1.0636 9.82941 0.977296 9.86466C0.890995 9.89991 0.798584 9.91777 0.705363 9.91724Z" fill="url(#paint0_radial_1802_5012)"/>
<defs>
<radialGradient id="paint0_radial_1802_5012" cx="0" cy="0" r="1" gradientUnits="userSpaceOnUse" gradientTransform="rotate(74.0525) scale(10.3142 8.30239)">
<stop stop-color="#449ECF"/>
<stop offset="0.252598" stop-color="#449ECF"/>
<stop offset="0.545703" stop-color="#68BCC7"/>
<stop offset="0.780808" stop-color="#76C9BC"/>
<stop offset="0.859126" stop-color="#7BD2AA"/>
<stop offset="1" stop-color="#7BD2AA"/>
</radialGradient>
</defs>
</svg>
