<svg width="19" height="17" viewBox="0 0 19 17" fill="none" xmlns="http://www.w3.org/2000/svg">
<g id="pie-chart (3) 1">
<path id="Union" fill-rule="evenodd" clip-rule="evenodd" d="M2.28838 8.71875H2.5957H5.36555C5.67538 10.4389 7.03184 11.7953 8.75195 12.1052V14.8749V15.1496C5.34308 14.803 2.63841 12.1186 2.28838 8.71875ZM10.252 12.1052V14.0797C11.3904 13.9415 12.4326 13.4928 13.2923 12.8201L11.896 11.4239C11.4122 11.7598 10.8544 11.9966 10.252 12.1052ZM11.4022 9.8912C10.914 10.3739 10.2428 10.6719 9.50195 10.6719C8.00906 10.6719 6.79883 9.46165 6.79883 7.96875C6.79883 6.47586 8.00906 5.26562 9.50195 5.26562C10.242 5.26562 10.9126 5.56303 11.4008 6.04485C11.4048 6.04907 11.4089 6.05325 11.413 6.0574C11.4172 6.06156 11.4214 6.06567 11.4256 6.06972C11.9076 6.55788 12.2051 7.22858 12.2051 7.96875C12.2051 8.7097 11.907 9.38102 11.4241 9.86931C11.4204 9.87289 11.4167 9.87652 11.413 9.88019C11.4094 9.88383 11.4058 9.8875 11.4022 9.8912ZM12.9568 10.3633L14.8989 12.3054L14.9082 12.3143L14.9157 12.3217C14.9213 12.3273 14.9267 12.3329 14.932 12.3385L15.1326 12.5391C16.1466 11.2914 16.7536 9.70154 16.7536 7.96879C16.7536 6.23604 16.1466 4.64613 15.1326 3.39851L14.9278 3.60324L14.9157 3.61564L14.9033 3.62775L12.9568 5.57429C13.4286 6.2537 13.7051 7.07894 13.7051 7.96875C13.7051 8.85859 13.4286 9.68384 12.9568 10.3633ZM11.8961 4.51368L13.2924 3.11736C12.2472 2.29933 10.9319 1.8125 9.50195 1.8125C6.35584 1.8125 3.76092 4.1725 3.39093 7.21875H5.36555C5.71921 5.25527 7.43662 3.76562 9.50195 3.76562C10.3916 3.76562 11.2167 4.04204 11.8961 4.51368ZM1.5 7.21875H1.88197C2.25886 3.34232 5.52659 0.3125 9.50195 0.3125C11.3457 0.3125 13.0381 0.964963 14.3593 2.05042L14.6295 1.78022C14.7702 1.63956 14.961 1.56055 15.1599 1.56055C15.3588 1.56055 15.5496 1.63956 15.6902 1.78022C17.2732 3.36317 18.2536 5.55219 18.2536 7.96879C18.2536 10.3854 17.2732 12.5744 15.6902 14.1574C15.3973 14.4503 14.9224 14.4503 14.6295 14.1574L14.3592 13.887C13.2194 14.8235 11.8032 15.4376 10.252 15.5886V15.9375C10.252 16.3517 9.91617 16.6875 9.50195 16.6875C4.67244 16.6875 0.75 12.8064 0.75 7.96875C0.75 7.55454 1.08579 7.21875 1.5 7.21875Z" fill="url(#paint0_radial_1745_1796)"/>
</g>
<defs>
<radialGradient id="paint0_radial_1745_1796" cx="0" cy="0" r="1" gradientUnits="userSpaceOnUse" gradientTransform="translate(0.75 0.3125) rotate(61.8772) scale(18.567 23.518)">
<stop stop-color="#449ECF"/>
<stop offset="0.252598" stop-color="#449ECF"/>
<stop offset="0.545703" stop-color="#68BCC7"/>
<stop offset="0.780808" stop-color="#76C9BC"/>
<stop offset="0.859126" stop-color="#7BD2AA"/>
<stop offset="1" stop-color="#7BD2AA"/>
</radialGradient>
</defs>
</svg>
