<svg width="19" height="17" viewBox="0 0 19 17" fill="none" xmlns="http://www.w3.org/2000/svg">
<g id="pie-chart (3) 1">
<path id="Union" fill-rule="evenodd" clip-rule="evenodd" d="M2.28642 8.71875H2.59375H5.3636C5.67343 10.4389 7.02989 11.7953 8.75 12.1052V14.8749V15.1496C5.34113 14.803 2.63646 12.1186 2.28642 8.71875ZM10.25 12.1052V14.0797C11.3885 13.9415 12.4307 13.4928 13.2903 12.8201L11.8941 11.4239C11.4102 11.7598 10.8524 11.9966 10.25 12.1052ZM11.4003 9.8912C10.912 10.3739 10.2408 10.6719 9.5 10.6719C8.00711 10.6719 6.79688 9.46165 6.79688 7.96875C6.79688 6.47586 8.00711 5.26562 9.5 5.26562C10.2401 5.26562 10.9107 5.56303 11.3988 6.04485C11.4028 6.04907 11.4069 6.05325 11.4111 6.0574C11.4152 6.06156 11.4194 6.06567 11.4237 6.06972C11.9056 6.55788 12.2031 7.22858 12.2031 7.96875C12.2031 8.7097 11.905 9.38102 11.4222 9.86931C11.4184 9.87289 11.4147 9.87652 11.4111 9.88019C11.4074 9.88383 11.4038 9.8875 11.4003 9.8912ZM12.9548 10.3633L14.897 12.3054L14.9063 12.3143L14.9138 12.3217C14.9193 12.3273 14.9248 12.3329 14.9301 12.3385L15.1306 12.5391C16.1447 11.2914 16.7516 9.70154 16.7516 7.96879C16.7516 6.23604 16.1447 4.64613 15.1306 3.39851L14.9259 3.60324L14.9138 3.61564L14.9014 3.62775L12.9548 5.57429C13.4266 6.2537 13.7031 7.07894 13.7031 7.96875C13.7031 8.85859 13.4266 9.68384 12.9548 10.3633ZM11.8941 4.51368L13.2904 3.11736C12.2452 2.29933 10.93 1.8125 9.5 1.8125C6.35389 1.8125 3.75897 4.1725 3.38898 7.21875H5.3636C5.71726 5.25527 7.43467 3.76562 9.5 3.76562C10.3897 3.76562 11.2148 4.04204 11.8941 4.51368ZM1.49805 7.21875H1.88002C2.2569 3.34232 5.52463 0.3125 9.5 0.3125C11.3437 0.3125 13.0362 0.964963 14.3574 2.05042L14.6276 1.78022C14.7682 1.63956 14.959 1.56055 15.1579 1.56055C15.3568 1.56055 15.5476 1.63956 15.6883 1.78022C17.2712 3.36317 18.2516 5.55219 18.2516 7.96879C18.2516 10.3854 17.2712 12.5744 15.6883 14.1574C15.3954 14.4503 14.9205 14.4503 14.6276 14.1574L14.3573 13.887C13.2174 14.8235 11.8012 15.4376 10.25 15.5886V15.9375C10.25 16.3517 9.91421 16.6875 9.5 16.6875C4.67049 16.6875 0.748047 12.8064 0.748047 7.96875C0.748047 7.55454 1.08383 7.21875 1.49805 7.21875Z" fill="white"/>
</g>
</svg>
