<svg width="6" height="12" viewBox="0 0 6 12" fill="none" xmlns="http://www.w3.org/2000/svg">
<path id="path9429" d="M0.607234 0.000206632C0.488863 -0.00369422 0.372623 0.0477192 0.274673 0.147378C0.176723 0.247037 0.10193 0.390016 0.0606932 0.556308C0.0194564 0.722601 0.0138245 0.903987 0.0445804 1.0753C0.0753362 1.24661 0.140951 1.39923 0.232304 1.51209L3.71792 5.9862L0.232304 10.4587C0.169111 10.5283 0.116188 10.6167 0.0768502 10.7183C0.0375121 10.82 0.0126063 10.9327 0.00369209 11.0495C-0.00522214 11.1662 0.0020475 11.2845 0.0250457 11.3968C0.0480438 11.5091 0.0862749 11.6132 0.137345 11.7024C0.188415 11.7915 0.251224 11.8639 0.321839 11.915C0.392453 11.9661 0.469352 11.9948 0.547719 11.9994C0.626085 12.0039 0.704232 11.9842 0.777265 11.9414C0.850299 11.8986 0.916645 11.8336 0.97215 11.7506L4.96286 6.63464C5.02553 6.55451 5.07586 6.45505 5.11036 6.34296C5.14487 6.23086 5.16274 6.10886 5.16274 5.98541C5.16274 5.86197 5.14487 5.73996 5.11036 5.62787C5.07586 5.51578 5.02553 5.41622 4.96286 5.33609L0.97215 0.215205C0.871338 0.0810394 0.742033 0.00495992 0.607234 0.000206632Z" fill="white"/>
</svg>
