<svg width="61" height="61" viewBox="0 0 61 61" fill="none" xmlns="http://www.w3.org/2000/svg">
<g id="Group 11327">
<rect id="Rectangle 4206" opacity="0.05" width="61" height="61" rx="6" fill="#2B8AC8"/>
<path id="Union" fill-rule="evenodd" clip-rule="evenodd" d="M22.3555 26.9942C20.6683 31.4451 22.9954 36.4741 27.533 38.0925C27.7076 38.2082 27.8821 38.4393 27.8821 38.6127V39.4221C27.8821 39.5376 27.8821 39.5955 27.8239 39.6532C27.7658 39.8844 27.533 40 27.3003 39.8844C24.0425 38.844 21.5409 36.3584 20.4938 33.1214C18.7485 27.6301 21.7737 21.7918 27.3003 20.0577C27.3585 20 27.4748 20 27.533 20C27.7658 20.0577 27.8821 20.2311 27.8821 20.4624V21.2716C27.8821 21.5607 27.7658 21.7341 27.533 21.8497C25.1479 22.7167 23.2281 24.5664 22.3555 26.9942ZM33.1761 20.289C33.2342 20.0577 33.467 19.9421 33.6997 20.0577C36.8993 21.0982 39.4591 23.5838 40.5062 26.8786C42.2515 32.3699 39.2263 38.2082 33.6997 39.9423C33.6415 40 33.5252 40 33.467 40C33.2342 39.9423 33.1179 39.7689 33.1179 39.5376V38.7284C33.1179 38.4393 33.2342 38.2659 33.467 38.1503C35.8521 37.2833 37.7719 35.4336 38.6445 33.0058C40.3317 28.5549 38.0046 23.5259 33.467 21.9075C33.2924 21.7918 33.1179 21.5607 33.1179 21.3294V20.5202C33.1179 20.4045 33.1179 20.3468 33.1761 20.289ZM30.6753 29.0173C33.1187 29.3062 34.3404 29.9999 34.3404 32.023C34.3404 33.5837 33.1769 34.7975 31.4317 35.0866V36.4739C31.3734 36.7629 31.1989 36.9363 30.9662 36.9363H30.0935C29.8027 36.8785 29.6282 36.7051 29.6282 36.4739V35.0866C27.7084 34.7975 26.7775 33.7571 26.5449 32.3121V32.2542C26.5449 32.023 26.7194 31.8495 26.9521 31.8495H27.9411C28.1157 31.8495 28.2902 31.9652 28.3483 32.1964C28.5228 33.0634 29.0464 33.6994 30.559 33.6994C31.6643 33.6994 32.4788 33.0636 32.4788 32.1387C32.4788 31.2137 31.9552 30.8669 30.3263 30.578C27.8829 30.2888 26.7194 29.5375 26.7194 27.63C26.7194 26.1848 27.8247 25.0288 29.57 24.7975V23.4681C29.6282 23.179 29.8027 23.0056 30.0355 23.0056H30.9081C31.1989 23.0634 31.3734 23.2368 31.3734 23.4681V24.8554C32.7114 24.9709 33.7586 25.9536 33.9913 27.2253V27.2831C33.9913 27.5143 33.8168 27.6877 33.5841 27.6877H32.6534C32.4788 27.6877 32.3043 27.5721 32.2461 27.3987C31.9552 26.5316 31.3734 26.1848 30.3263 26.1848C29.1628 26.1848 28.581 26.7049 28.581 27.5143C28.581 28.3236 28.9301 28.786 30.6753 29.0173Z" fill="url(#paint0_radial_1049_1163)"/>
</g>
<defs>
<radialGradient id="paint0_radial_1049_1163" cx="0" cy="0" r="1" gradientUnits="userSpaceOnUse" gradientTransform="translate(20 20) rotate(62.3005) scale(22.5887 28.3264)">
<stop stop-color="#449ECF"/>
<stop offset="0.252598" stop-color="#449ECF"/>
<stop offset="0.545703" stop-color="#68BCC7"/>
<stop offset="0.780808" stop-color="#76C9BC"/>
<stop offset="0.859126" stop-color="#7BD2AA"/>
<stop offset="1" stop-color="#7BD2AA"/>
</radialGradient>
</defs>
</svg>
