<svg width="45" height="45" viewBox="0 0 45 45" fill="none" xmlns="http://www.w3.org/2000/svg">
<g id="Group 11466">
<rect id="Rectangle 4206" opacity="0.05" width="45" height="45" rx="6" fill="#2B8AC8"/>
<g id="Group 11028">
<path id="Vector" d="M17.4882 15.0001C17.4882 15.0001 17.4882 15.0001 17.4883 15.0001C17.5024 15.0007 17.5166 15.0017 17.5309 15.0017C20.8986 15.0017 24.2663 15.0017 27.634 15.0017C27.6352 15.0017 27.6363 15.0017 27.6375 15.0017C27.6636 15.0014 27.6898 15.0011 27.716 15.0011C28.1847 15.0011 28.6534 15.0011 29.1222 15.0012C29.1687 15.0012 29.1646 14.9963 29.1646 15.0429C29.1646 19.4032 29.1646 23.7636 29.1645 28.1239C29.1645 28.1367 29.1671 28.1499 29.162 28.1623C29.1619 28.1626 29.1617 28.1628 29.1614 28.163C29.1476 28.1688 29.1332 28.1658 29.1191 28.1658C28.3017 28.166 27.4843 28.1625 26.6669 28.1666C23.9902 28.1803 21.3134 28.1722 18.6367 28.1703C17.7696 28.1697 16.9025 28.17 16.0354 28.1658C16.0249 28.1658 16.0139 28.168 16.0038 28.1629C16.0035 28.1627 16.0033 28.1625 16.0032 28.1622C15.9981 28.1498 16.0007 28.1367 16.0007 28.1239C16.0005 23.7635 16.0005 19.4031 16.0006 15.0427C16.0006 14.9962 15.9963 15.0011 16.0431 15.0011C16.5106 15.001 16.9782 15.0011 17.4457 15.001C17.4599 15.001 17.4741 15.002 17.4882 15C17.4882 15 17.4883 15.0001 17.4882 15.0001Z" fill="url(#paint0_radial_1672_5845)"/>
<g id="Group 11027">
<path id="Vector_2" d="M17.1201 18.9464C17.1201 18.9463 17.1202 18.9462 17.1202 18.9461C17.1224 18.9089 17.1418 18.8898 17.1784 18.8889C17.1947 18.8885 17.211 18.8886 17.2272 18.8884C17.3135 18.8809 17.3995 18.8939 17.4857 18.8895C17.5729 18.8895 17.6602 18.8895 17.7474 18.8895C17.8079 18.8899 17.8684 18.8892 17.929 18.8884C17.9789 18.8893 18.0288 18.8905 18.0788 18.8909C18.1035 18.8912 18.1122 18.9028 18.1165 18.9274C18.1239 18.9703 18.1068 19.0095 18.1043 19.0507C18.1006 19.1085 18.0568 19.1648 17.9988 19.1648C17.9752 19.1648 17.9517 19.1648 17.9282 19.1649C17.8327 19.1652 17.8321 19.1655 17.857 19.2541C17.9564 19.6082 18.0562 19.9623 18.1559 20.3163C18.1603 20.3318 18.1795 20.3338 18.1841 20.3184C18.1869 20.3092 18.1888 20.3 18.1914 20.2911C18.3176 19.8595 18.4352 19.4255 18.5555 18.9922C18.5609 18.9727 18.5685 18.9538 18.5725 18.9342C18.5763 18.9155 18.5842 18.9029 18.5961 18.8957C18.6179 18.8826 18.6462 18.8865 18.6714 18.8896C18.6821 18.8909 18.6929 18.8896 18.7037 18.8896C18.7153 18.8896 18.7269 18.8896 18.7385 18.8896C18.8228 18.8903 18.9071 18.8874 18.9913 18.8931C18.9936 18.8932 18.9959 18.8933 18.9982 18.8934C19.0147 18.8942 19.0294 18.9063 19.034 18.9222C19.1044 19.1606 19.1732 19.3996 19.2374 19.6398C19.2448 19.6673 19.2408 19.6988 19.2541 19.724C19.2595 19.7342 19.2651 19.7446 19.2688 19.7556C19.3028 19.8568 19.3261 19.9611 19.3554 20.0636C19.3846 20.166 19.4122 20.2688 19.4406 20.3714C19.4412 20.3738 19.4432 20.3756 19.4457 20.376C19.4489 20.3765 19.452 20.3745 19.4529 20.3714C19.5254 20.0982 19.598 19.8251 19.6705 19.5518C19.675 19.535 19.6912 19.5232 19.6957 19.5063C19.6998 19.4908 19.6927 19.4735 19.6966 19.4578C19.7174 19.3743 19.7382 19.2909 19.7588 19.2073C19.7607 19.1993 19.7608 19.191 19.7618 19.1829C19.7678 19.1595 19.7488 19.1658 19.7386 19.1648C19.6795 19.1585 19.62 19.1611 19.5607 19.1609C19.4987 19.1606 19.4972 19.1608 19.4991 19.0985C19.4992 19.0946 19.4993 19.0907 19.4992 19.0868C19.4985 19.0023 19.4835 18.8895 19.568 18.8895C19.9401 18.8895 20.3122 18.8919 20.6844 18.8892C20.9943 18.8869 21.3042 18.8835 21.6142 18.8852C21.7402 18.8859 21.8662 18.8875 21.9922 18.8892C22.0437 18.8899 22.0446 18.8912 22.0427 18.9407C22.0346 19.1486 22.0315 19.3566 22.0338 19.5648C22.034 19.5809 22.03 19.5822 22.0165 19.5804C21.9538 19.5722 21.8908 19.5749 21.8278 19.5756C21.8165 19.5757 21.803 19.5812 21.8028 19.5617C21.8003 19.5195 21.7759 19.4811 21.7618 19.4413C21.755 19.4218 21.7484 19.4023 21.7429 19.3825C21.7051 19.2467 21.6142 19.1809 21.4758 19.1758C21.4617 19.1753 21.4482 19.1701 21.4346 19.1665C21.4137 19.161 21.3918 19.1617 21.3708 19.1617C21.2452 19.1617 21.1195 19.1566 20.994 19.1643C20.9861 19.1648 20.9769 19.1618 20.9722 19.1717C20.9672 19.1843 20.9691 19.1975 20.9691 19.2105C20.9691 19.3898 20.9684 19.5691 20.972 19.7484C20.9724 19.771 20.9769 19.78 21.0013 19.779C21.0547 19.7767 21.108 19.7843 21.1614 19.782C21.2763 19.7892 21.3914 19.7852 21.5064 19.7861C21.5195 19.7856 21.5325 19.786 21.5456 19.7865C21.5667 19.7868 21.5792 19.807 21.5841 19.8276C21.6028 19.9044 21.5975 19.9817 21.5813 20.0594C21.5759 20.0851 21.5609 20.0909 21.5357 20.0908C21.3639 20.0903 21.1921 20.0836 21.0203 20.0885C20.992 20.0893 20.9676 20.0988 20.9656 20.127C20.9565 20.2574 20.9672 20.3878 20.9656 20.5182C20.9649 20.5752 20.9662 20.6321 20.9652 20.6891C20.9647 20.7173 20.9745 20.7295 21.0045 20.7291C21.1101 20.7278 21.2159 20.7312 21.3213 20.7267C21.3752 20.7243 21.4292 20.7154 21.4834 20.7115C21.5321 20.7084 21.5805 20.7038 21.6273 20.6888C21.6799 20.672 21.7177 20.6396 21.7398 20.5878C21.7772 20.5 21.7996 20.4076 21.8236 20.3159C21.8329 20.2804 21.8512 20.2698 21.8825 20.2702C21.9324 20.2709 21.9823 20.2737 22.0323 20.273C22.057 20.2726 22.0641 20.2801 22.0637 20.3052C22.0621 20.4075 22.0627 20.5099 22.0627 20.6122C22.0627 20.7264 22.062 20.8406 22.0637 20.9549C22.0641 20.9846 22.0588 20.9951 22.0255 20.9951C21.5912 20.9951 21.157 20.9966 20.7227 20.9981C20.5752 20.9986 20.4277 21 20.2802 21.0012C20.2639 21.0014 20.239 20.9908 20.2525 20.9811C20.2789 20.9622 20.266 20.9411 20.2665 20.9231C20.2679 20.8696 20.266 20.8159 20.2614 20.7627C20.2587 20.7325 20.2711 20.7262 20.2969 20.7253C20.3563 20.7235 20.4156 20.7189 20.475 20.7175C20.5016 20.7168 20.5117 20.7093 20.5116 20.6803C20.5107 20.1866 20.5108 19.6928 20.5115 19.199C20.5115 19.1726 20.5046 19.1643 20.4775 19.1648C20.368 19.1672 20.2586 19.1679 20.1492 19.1676C20.1261 19.1675 20.1173 19.1748 20.1104 19.197C20.0031 19.5391 19.9117 19.8858 19.8126 20.2304C19.7437 20.4699 19.6748 20.7095 19.6073 20.9494C19.5979 20.9826 19.5805 20.9957 19.5472 20.9974C19.427 21.0032 19.3069 20.9986 19.1868 21.0014C19.1609 21.002 19.1582 20.9846 19.1535 20.9681C19.1183 20.8448 19.083 20.7215 19.0488 20.598C18.956 20.2616 18.863 19.9253 18.763 19.5909C18.7572 19.5713 18.737 19.5723 18.7295 19.5913C18.7171 19.6229 18.708 19.655 18.6987 19.6869C18.5747 20.1094 18.4509 20.532 18.3284 20.9551C18.3196 20.9856 18.3078 20.9958 18.2757 20.9952C18.1568 20.9931 18.0377 20.9937 17.9188 20.9949C17.8963 20.9951 17.8852 20.9896 17.8786 20.9669C17.7839 20.6397 17.6884 20.3127 17.5931 19.9856C17.5911 19.9789 17.5931 19.9716 17.5937 19.9645C17.5944 19.9571 17.5936 19.9501 17.5916 19.9434C17.5844 19.9188 17.5682 19.8974 17.5612 19.8727C17.4986 19.6513 17.4357 19.43 17.3741 19.2083C17.3673 19.1838 17.3586 19.174 17.3318 19.174C17.2863 19.174 17.2408 19.1723 17.1953 19.1704C17.1507 19.1687 17.1203 19.1395 17.1207 19.0949C17.1213 19.0455 17.122 18.9962 17.12 18.9468C17.12 18.9467 17.12 18.9465 17.1201 18.9464Z" fill="white"/>
<path id="Vector_3" d="M19.764 23.8953C19.764 23.8953 19.7641 23.8953 19.7641 23.8953C19.7645 23.9761 19.7644 24.0569 19.7656 24.1376C19.7659 24.1566 19.7598 24.1617 19.7414 24.1616C19.4906 24.1611 19.2397 24.1611 18.9889 24.1616C18.9702 24.1616 18.9646 24.1559 18.9649 24.1373C18.9654 24.1045 18.9657 24.0717 18.966 24.0389C18.9665 23.955 19.0265 23.9065 19.1102 23.899C19.1128 23.8988 19.1124 23.8985 19.1099 23.8978C19.0901 23.8931 19.0685 23.9063 19.0501 23.8929C19.0478 23.8912 19.049 23.8878 19.0519 23.8876C19.0907 23.8847 19.1388 23.9005 19.1662 23.8776C19.1929 23.8553 19.1999 23.809 19.2145 23.7728C19.4359 23.2203 19.6571 22.6678 19.8784 22.1153C19.8837 22.1022 19.8899 22.0886 19.9015 22.0806C19.918 22.0692 19.9388 22.0684 19.9591 22.0669C19.9767 22.0656 19.9944 22.0666 20.0121 22.0665C20.0896 22.0668 20.167 22.0609 20.2444 22.0628C20.2773 22.0637 20.3148 22.0634 20.3272 22.0938C20.4277 22.3399 20.5284 22.586 20.6287 22.8322C20.7669 23.1719 20.9053 23.5115 21.0419 23.8519C21.0544 23.883 21.0699 23.8915 21.1016 23.8909C21.2051 23.8888 21.3086 23.8888 21.4121 23.8905C21.4416 23.891 21.4495 23.8829 21.4495 23.8532C21.4495 23.5296 21.4509 23.206 21.4521 22.8824C21.4527 22.7123 21.4529 22.5421 21.4548 22.372C21.4551 22.346 21.4498 22.337 21.4218 22.3388C21.3589 22.3427 21.2958 22.342 21.2328 22.3446C21.2115 22.3455 21.2036 22.3396 21.204 22.317C21.2052 22.2385 21.2049 22.16 21.2041 22.0815C21.204 22.0634 21.2089 22.0562 21.2281 22.0567C21.3113 22.0584 21.3944 22.0591 21.4775 22.0602C21.4852 22.0603 21.4892 22.0717 21.4816 22.0704C21.4733 22.0688 21.4762 22.0714 21.4846 22.0701C21.4924 22.0689 21.5007 22.0668 21.5091 22.0667C21.679 22.0665 21.8488 22.0659 22.0185 22.067C22.0811 22.0674 22.1437 22.0743 22.2064 22.067C22.3679 22.0674 22.5308 22.0585 22.689 22.0962C22.7931 22.121 22.8844 22.173 22.9666 22.2474C23.0932 22.3621 23.1138 22.5065 23.1093 22.6623C23.108 22.7097 23.1012 22.7569 23.0868 22.8026C23.0339 22.9708 22.915 23.0702 22.7517 23.1232C22.7326 23.1294 22.7128 23.1338 22.6935 23.1401C22.6726 23.1469 22.6699 23.1668 22.6909 23.173C22.8645 23.2242 22.9549 23.3426 22.9782 23.5196C22.9894 23.6054 22.9981 23.6918 23.0198 23.776C23.0478 23.8845 23.082 23.9123 23.1929 23.9174C23.2248 23.9188 23.2588 23.9185 23.2714 23.9582C23.2825 24.0065 23.2738 24.0548 23.2716 24.1031C23.2713 24.1103 23.2704 24.1174 23.2688 24.1244C23.262 24.1538 23.2338 24.1757 23.2037 24.1774C23.0754 24.1849 22.9472 24.1891 22.8201 24.1627C22.6713 24.1318 22.5941 24.0336 22.5632 23.8912C22.5393 23.781 22.5313 23.6679 22.5009 23.5588C22.4888 23.5154 22.4742 23.4735 22.4531 23.4344C22.4359 23.4024 22.422 23.3652 22.3917 23.3451C22.3782 23.3362 22.3637 23.3281 22.3491 23.3211C22.3085 23.3016 22.2628 23.3006 22.2194 23.2934C22.1338 23.2793 22.0468 23.2781 21.9603 23.273C21.9273 23.2711 21.9146 23.2824 21.9141 23.3174C21.9114 23.4994 21.9192 23.6812 21.9221 23.8631C21.9225 23.8834 21.9293 23.8883 21.9487 23.8902C22.0223 23.8973 22.096 23.8968 22.1697 23.8952C22.1942 23.8947 22.2032 23.9025 22.2025 23.9273C22.2006 23.9974 22.1977 24.0676 22.2081 24.1374C22.2109 24.1563 22.2032 24.1636 22.1844 24.1616C22.175 24.1606 22.1654 24.1615 22.1559 24.1615C21.5577 24.1615 20.9595 24.1615 20.3613 24.1615C20.3254 24.1615 20.3077 24.143 20.3081 24.1061C20.3081 24.1003 20.3082 24.0945 20.3083 24.0887C20.3085 24.0809 20.316 24.0729 20.3156 24.0651C20.3135 24.0226 20.3145 23.9801 20.3148 23.9375C20.3151 23.9041 20.3234 23.8955 20.3567 23.8948C20.3945 23.8938 20.4324 23.8948 20.4702 23.8944C20.4958 23.8941 20.5312 23.8879 20.5317 23.8623C20.5318 23.8591 20.5315 23.8556 20.531 23.8518C20.5269 23.8233 20.5154 23.7971 20.5056 23.7705C20.4814 23.705 20.4549 23.6402 20.4317 23.5742C20.4238 23.5519 20.414 23.5437 20.3893 23.5439C20.2801 23.5451 20.1709 23.5439 20.0618 23.5434C20.0551 23.5434 20.0476 23.5369 20.0539 23.5348C20.0549 23.5344 20.0562 23.5343 20.0572 23.5343C20.0999 23.5335 20.1425 23.5342 20.1853 23.5339C20.1941 23.5339 20.1937 23.5332 20.1848 23.5337C20.0198 23.5355 19.8548 23.5399 19.6899 23.5368C19.6871 23.5368 19.6843 23.5379 19.6823 23.54C19.6802 23.5421 19.6773 23.5431 19.6743 23.5431C19.6584 23.5431 19.6498 23.5513 19.6436 23.5684C19.6089 23.6629 19.5729 23.7569 19.5371 23.8509C19.5316 23.8654 19.523 23.89 19.5385 23.8913C19.5518 23.8925 19.564 23.8926 19.5773 23.8935C19.6242 23.8966 19.6711 23.8941 19.7179 23.8938C19.7448 23.8937 19.7581 23.9005 19.7546 23.93C19.7539 23.9359 19.7529 23.9361 19.7531 23.9301C19.7534 23.9181 19.7558 23.9064 19.764 23.8953C19.764 23.8953 19.764 23.8953 19.764 23.8953Z" fill="white"/>
<path id="Vector_4" d="M24.1411 23.8282C24.2388 23.895 24.3476 23.9271 24.4654 23.9293C24.589 23.9316 24.7122 23.9309 24.8301 23.8842C24.8485 23.8769 24.8558 23.8687 24.855 23.8484C24.8537 23.8115 24.8552 23.7744 24.8557 23.7374C24.8558 23.7333 24.8583 23.7283 24.862 23.7301C24.8637 23.731 24.8646 23.7331 24.8648 23.7351C24.8655 23.7398 24.8654 23.7446 24.8652 23.7494C24.8673 23.7328 24.8598 23.7169 24.8619 23.7003C24.8621 23.6432 24.8615 23.5862 24.8622 23.5292C24.8622 23.5289 24.8622 23.5286 24.8623 23.5283C24.8635 23.5226 24.8646 23.5168 24.8652 23.5108C24.8655 23.5086 24.8655 23.5085 24.8652 23.5108C24.8649 23.5134 24.8639 23.5155 24.8621 23.5171C24.861 23.5181 24.8595 23.518 24.8582 23.5174C24.8568 23.5167 24.8559 23.5153 24.8559 23.5136C24.8556 23.4909 24.8553 23.4681 24.8551 23.4454C24.8545 23.3981 24.8243 23.3568 24.777 23.3571C24.763 23.3572 24.749 23.3574 24.7351 23.3563C24.6724 23.3516 24.6093 23.3579 24.5462 23.3538C24.518 23.3519 24.4929 23.3493 24.485 23.3221C24.4813 23.3098 24.4794 23.2971 24.4784 23.2844C24.4739 23.2311 24.4729 23.1775 24.4825 23.1245C24.4926 23.0688 24.5074 23.0554 24.5667 23.0534C24.669 23.05 24.7712 23.0587 24.8733 23.0617C25.01 23.0656 25.1468 23.0716 25.2832 23.0593C25.3124 23.0567 25.3103 23.0715 25.3104 23.0905C25.3113 23.3142 25.3124 23.5378 25.3137 23.7616C25.3142 23.8342 25.3152 23.9067 25.3172 23.9792C25.3178 23.9996 25.3124 24.0105 25.2926 24.0194C25.0901 24.11 24.8828 24.1853 24.6615 24.2125C24.3614 24.2493 24.0713 24.2226 23.8129 24.0478C23.592 23.8982 23.4581 23.6871 23.4029 23.4273C23.3435 23.1475 23.3533 22.8711 23.4699 22.6061C23.6108 22.2862 23.8601 22.0961 24.1976 22.018C24.2369 22.0089 24.2765 22.0007 24.3168 21.9971C24.3497 21.9941 24.3832 21.9968 24.4162 21.9958C24.4571 21.9959 24.4979 21.9959 24.5388 21.9958C24.5458 21.9958 24.5527 21.9966 24.5596 21.9955C24.577 21.9926 24.595 21.9953 24.6126 21.9964C24.7599 22.006 24.9011 22.0447 25.0408 22.0904C25.1108 22.1134 25.178 22.1429 25.2443 22.1752C25.2632 22.1844 25.2693 22.1952 25.2689 22.216C25.2662 22.3729 25.2648 22.5298 25.2632 22.6868C25.263 22.7057 25.2434 22.7278 25.2245 22.7266C25.1682 22.723 25.1136 22.723 25.059 22.7245C25.0525 22.7247 25.0439 22.7295 25.0406 22.7238C25.0024 22.657 24.9787 22.5825 24.9348 22.5187C24.9111 22.4843 24.9003 22.4417 24.865 22.4144C24.7958 22.3609 24.7205 22.3217 24.6332 22.3078C24.5129 22.2886 24.3934 22.2919 24.2765 22.3262C24.1402 22.3662 24.0468 22.4501 23.986 22.5662C23.9555 22.6247 23.9264 22.6865 23.9113 22.7507C23.8993 22.8008 23.8849 22.8504 23.882 22.9021C23.8815 22.9109 23.8805 22.9197 23.8798 22.9285C23.8772 22.9585 23.8705 22.9883 23.8657 23.018C23.8644 23.0255 23.8637 23.0333 23.8631 23.0412C23.8617 23.0599 23.8761 23.0779 23.8768 23.0966C23.8773 23.1122 23.8774 23.1278 23.8763 23.1434C23.8754 23.1553 23.8595 23.1695 23.857 23.1578C23.8546 23.1463 23.8589 23.1341 23.8594 23.1223C23.8596 23.1156 23.8587 23.1089 23.8586 23.1027C23.8585 23.0977 23.8577 23.0885 23.854 23.0917C23.8536 23.092 23.8539 23.0923 23.8554 23.0921C23.856 23.092 23.8563 23.0924 23.8565 23.0932C23.8601 23.1072 23.8604 23.1213 23.8566 23.1353C23.8563 23.1365 23.8561 23.1378 23.8562 23.1391C23.8578 23.165 23.8673 23.1907 23.8639 23.2193C23.8634 23.2236 23.876 23.2378 23.8785 23.2413C23.8789 23.2419 23.8793 23.2428 23.8794 23.2434C23.8805 23.2621 23.8791 23.2806 23.8777 23.2993C23.8786 23.3598 23.897 23.4168 23.9122 23.4745C23.9265 23.5392 23.9579 23.5997 23.9898 23.6578C23.9993 23.6751 24.0094 23.692 24.0201 23.7086C24.0516 23.7576 24.0894 23.8002 24.1413 23.8284L24.1411 23.8282Z" fill="white"/>
<path id="Vector_5" d="M26.4913 20.6658C26.4913 20.6658 26.4913 20.6659 26.4913 20.6659C26.5702 20.7217 26.6596 20.747 26.7546 20.7548C26.8735 20.7646 26.9918 20.7641 27.1094 20.7384C27.3164 20.693 27.3342 20.5136 27.2954 20.372C27.2814 20.3212 27.2392 20.2907 27.1941 20.2667C27.0936 20.213 26.9835 20.1874 26.874 20.1604C26.7174 20.1216 26.5614 20.0822 26.4096 20.0255C26.015 19.8781 25.8866 19.3278 26.2677 19.024C26.4111 18.9096 26.5761 18.8419 26.7583 18.8341C27.0626 18.8211 27.3574 18.8682 27.6331 19.0073C27.655 19.0183 27.6653 19.0283 27.6646 19.0543C27.6602 19.2076 27.6595 19.3611 27.6646 19.5145C27.6655 19.5417 27.6573 19.5489 27.6308 19.5477C27.5738 19.5452 27.5167 19.5457 27.4596 19.5453C27.4307 19.5452 27.4184 19.5339 27.4178 19.5024C27.4159 19.3901 27.3629 19.2969 27.2789 19.2321C27.2209 19.1874 27.1453 19.1608 27.0691 19.1478C26.9506 19.1275 26.8322 19.1271 26.7149 19.154C26.5369 19.1949 26.487 19.3151 26.5206 19.4787C26.5333 19.5407 26.5804 19.5766 26.6347 19.6028C26.7197 19.644 26.811 19.6661 26.9021 19.6881C26.9944 19.7104 27.087 19.7315 27.1794 19.7535C27.3131 19.7855 27.4411 19.8331 27.5482 19.9208C27.7803 20.1108 27.8438 20.4534 27.6943 20.7121C27.6111 20.8561 27.4837 20.9475 27.3239 20.994C27.1627 21.041 26.9987 21.0562 26.8307 21.052C26.6487 21.0475 26.4714 21.0219 26.2981 20.9672C26.2162 20.9414 26.1392 20.9048 26.0624 20.8671C26.0481 20.8601 26.0404 20.8524 26.041 20.835C26.0424 20.7982 26.0415 20.7613 26.0415 20.7244C26.0489 20.6368 26.0406 20.5492 26.0405 20.4615C26.0405 20.4413 26.0553 20.4453 26.0561 20.4655C26.0582 20.5161 26.0581 20.5664 26.0582 20.6153C26.0588 20.6226 26.0664 20.6173 26.0618 20.6187C26.0603 20.6191 26.0597 20.6185 26.0593 20.6168C26.0568 20.6076 26.0581 20.5983 26.0585 20.5891C26.062 20.5037 26.0531 20.4187 26.052 20.3335C26.0512 20.2755 26.0557 20.2703 26.1146 20.2707C26.15 20.2709 26.1855 20.2752 26.2211 20.274C26.2442 20.2731 26.2749 20.2612 26.2814 20.2834C26.2817 20.2843 26.282 20.2853 26.2822 20.2862C26.2971 20.3503 26.3286 20.4091 26.3412 20.4743C26.3475 20.5065 26.3673 20.5338 26.3935 20.5558C26.4132 20.5724 26.4157 20.603 26.433 20.6222C26.4408 20.6309 26.45 20.6386 26.4579 20.6473C26.467 20.6572 26.4782 20.6632 26.4913 20.6658C26.4913 20.6658 26.4913 20.6658 26.4913 20.6658Z" fill="white"/>
<path id="Vector_6" d="M18.1793 23.8873C18.1792 23.8873 18.1792 23.8873 18.1793 23.8874C18.2623 23.894 18.3455 23.8895 18.4285 23.8896C18.4546 23.8896 18.4637 23.8957 18.4629 23.9232C18.4609 23.9934 18.4615 24.0636 18.4627 24.1338C18.4631 24.1558 18.4559 24.1622 18.4342 24.1622C18.1178 24.1616 17.8013 24.1615 17.4849 24.1622C17.4626 24.1622 17.4568 24.1557 17.4572 24.134C17.4585 24.0626 17.4586 23.9912 17.4572 23.9198C17.4567 23.8965 17.4631 23.8891 17.4868 23.8897C17.5486 23.8912 17.6105 23.8891 17.6724 23.8908C17.6964 23.8914 17.7017 23.8833 17.7017 23.8606C17.7029 23.3633 17.7045 22.866 17.7071 22.3687C17.7072 22.3418 17.698 22.3381 17.6746 22.3393C17.6116 22.3423 17.5485 22.3418 17.4856 22.3451C17.4596 22.3465 17.457 22.3352 17.4573 22.314C17.4583 22.239 17.4589 22.164 17.4571 22.0892C17.4564 22.063 17.4654 22.0585 17.4893 22.0586C17.7082 22.06 17.9271 22.0602 18.1459 22.0607C18.1671 22.0607 18.1886 22.0633 18.2098 22.0633C18.5452 22.0626 18.8805 22.0695 19.2158 22.0669C19.2229 22.0669 19.2301 22.0674 19.2372 22.0669C19.2599 22.0653 19.2689 22.0745 19.2682 22.0982C19.2667 22.1469 19.2677 22.1957 19.2677 22.2445C19.2677 22.4038 19.2671 22.5633 19.2684 22.7227C19.2686 22.7496 19.2613 22.7572 19.2345 22.7564C19.2251 22.7561 19.2158 22.7559 19.2064 22.7559C19.1068 22.7553 19.0239 22.6911 18.9935 22.5962C18.9856 22.5714 18.9769 22.5467 18.9691 22.5218C18.9348 22.4113 18.8563 22.3614 18.7442 22.3522C18.6254 22.3424 18.5064 22.3456 18.3876 22.3427C18.3798 22.3425 18.3801 22.3382 18.3879 22.3382H18.4282C18.3521 22.3298 18.2763 22.338 18.2003 22.3396C18.1815 22.3401 18.1714 22.3469 18.1706 22.3664C18.17 22.3806 18.1677 22.3948 18.1673 22.409C18.1623 22.5934 18.1727 22.7776 18.1726 22.962C18.1726 22.9879 18.1848 22.9869 18.2028 22.9867C18.3467 22.9848 18.4907 22.9835 18.6345 22.9817C18.6703 22.9813 18.7059 22.9835 18.7412 22.989C18.7873 22.9963 18.8053 23.0162 18.8069 23.0632C18.8085 23.1107 18.808 23.1583 18.8075 23.2059C18.807 23.2786 18.7876 23.2983 18.7146 23.3016C18.6873 23.3004 18.66 23.303 18.6327 23.302C18.5884 23.302 18.5441 23.302 18.4997 23.302C18.4015 23.3039 18.3033 23.2994 18.205 23.3045C18.1767 23.3059 18.1716 23.3171 18.1717 23.3408C18.1722 23.4391 18.1719 23.5375 18.1719 23.6357C18.1721 23.7196 18.17 23.8036 18.1793 23.8872C18.1793 23.8873 18.1793 23.8873 18.1793 23.8873Z" fill="white"/>
<path id="Vector_7" d="M24.8701 19.9595C24.8701 19.9596 24.8701 19.9597 24.8701 19.9598C24.8698 20.197 24.8703 20.4342 24.8682 20.6713C24.8678 20.7076 24.8769 20.7203 24.9128 20.7151C24.921 20.7139 24.9293 20.714 24.9378 20.7146C24.9538 20.7156 24.9704 20.7177 24.9864 20.7197C24.9919 20.7203 24.9988 20.7197 24.9974 20.7286C24.9964 20.7351 24.9936 20.7327 24.9999 20.7306C25.0052 20.7288 25.0105 20.7277 25.0157 20.7284C25.0766 20.7369 25.1378 20.7254 25.1987 20.7321C25.2145 20.7338 25.1973 20.7304 25.1981 20.7277C25.2012 20.7168 25.2092 20.7166 25.2172 20.7164C25.2372 20.7159 25.257 20.7136 25.2767 20.7101C25.3097 20.7061 25.3428 20.7031 25.3755 20.6976C25.4616 20.6833 25.5178 20.633 25.5501 20.5528C25.5808 20.4765 25.5983 20.3967 25.6191 20.3177C25.6195 20.3163 25.6199 20.3149 25.6204 20.3135C25.6232 20.3054 25.6289 20.2986 25.6346 20.2923C25.6429 20.283 25.6538 20.2775 25.6656 20.2763C25.7212 20.2707 25.7769 20.2734 25.8326 20.2747C25.8424 20.2749 25.8508 20.28 25.8526 20.2914C25.8611 20.3518 25.8555 20.4123 25.8555 20.4728C25.8555 20.6283 25.8507 20.784 25.8581 20.9396C25.8601 20.9805 25.8506 20.9907 25.8103 20.9907C25.2695 20.9907 24.7288 20.9907 24.1881 20.9906C24.1679 20.9906 24.1573 20.9746 24.1577 20.9544C24.1592 20.8866 24.1612 20.8189 24.1608 20.7511C24.1607 20.7254 24.1753 20.7251 24.1921 20.7245C24.2551 20.7222 24.3181 20.7211 24.3809 20.7156C24.4026 20.7136 24.4086 20.7068 24.4086 20.6855C24.408 20.1882 24.408 19.6909 24.4086 19.1936C24.4086 19.1701 24.4015 19.1628 24.3784 19.1635C24.3106 19.1656 24.2428 19.1653 24.175 19.1671C24.1555 19.1676 24.1475 19.1626 24.1486 19.1416C24.1508 19.1013 24.1447 19.0595 24.1528 19.0207C24.161 18.9818 24.1602 18.9435 24.1611 18.9049C24.1613 18.8907 24.1663 18.8897 24.1778 18.8907C24.2768 18.8985 24.3758 18.8911 24.4753 18.8929C24.4816 18.893 24.4835 18.8873 24.4772 18.8879C24.4708 18.8885 24.4729 18.8842 24.4793 18.8841C24.6873 18.8836 24.8953 18.8801 25.1033 18.8875C25.1291 18.8884 25.1484 18.8927 25.1487 18.9235C25.1496 18.9807 25.1469 19.0379 25.1484 19.0951C25.1489 19.1204 25.1672 19.1569 25.1436 19.1658C25.1409 19.1669 25.1376 19.1674 25.1338 19.1675C25.1246 19.1676 25.1159 19.1639 25.107 19.1617C25.0694 19.1524 25.0313 19.1646 24.9936 19.1641C24.9653 19.1636 24.9366 19.1681 24.9082 19.1661C24.8793 19.1641 24.8686 19.1736 24.8691 19.2039C24.8707 19.2979 24.8697 19.3918 24.8697 19.4858C24.8697 19.619 24.8702 19.7522 24.8692 19.8854C24.869 19.9101 24.8787 19.9348 24.8701 19.9595Z" fill="white"/>
<path id="Vector_8" d="M22.4899 20.7175C22.4899 20.7175 22.4899 20.7174 22.49 20.7174C22.5261 20.7228 22.5333 20.7063 22.533 20.6718C22.5294 20.1843 22.5273 19.6968 22.5259 19.2094C22.5258 19.1814 22.5179 19.175 22.4909 19.1731C22.4756 19.1721 22.4603 19.1713 22.445 19.1706C22.3466 19.1664 22.2872 19.083 22.2682 18.9864C22.2657 18.9737 22.2664 18.9603 22.2658 18.9473C22.2639 18.9129 22.2761 18.895 22.3147 18.8954C22.3657 18.896 22.4168 18.8912 22.4678 18.8887C22.5153 18.8833 22.5625 18.8912 22.61 18.8903C22.698 18.8885 22.7861 18.8898 22.874 18.8898C22.9177 18.891 22.9617 18.8865 23.0099 18.895C23.005 18.8935 23.0014 18.8932 22.9984 18.893C22.994 18.8928 22.9881 18.8915 22.9884 18.8872C22.9886 18.885 22.9889 18.8839 22.9895 18.8839C23.0723 18.8807 23.1549 18.8852 23.2375 18.8902C23.2609 18.8916 23.2715 18.9155 23.2718 18.939C23.2721 18.9584 23.2705 18.9778 23.2713 18.9972C23.2715 19.0026 23.2718 19.011 23.2642 19.01C23.2508 19.0085 23.2575 18.9866 23.2574 18.9731C23.2572 18.9615 23.257 18.9508 23.2576 18.9425C23.256 18.9506 23.2568 18.9615 23.2572 18.9732C23.2576 18.9851 23.2585 18.9971 23.2601 19.0088C23.2714 19.0904 23.1978 19.1628 23.1154 19.1651C23.0818 19.1661 23.0481 19.1669 23.0144 19.1673C22.9897 19.1676 22.9798 19.1723 22.9799 19.2006C22.9808 19.6954 22.9807 20.1902 22.98 20.685C22.98 20.7103 22.9874 20.7162 23.0121 20.7163C23.1417 20.7166 23.2713 20.7204 23.4008 20.7105C23.4303 20.7082 23.4601 20.7056 23.4894 20.7011C23.5783 20.6875 23.6377 20.6383 23.6694 20.5533C23.6997 20.4719 23.7194 20.3876 23.7405 20.3036C23.7459 20.2823 23.754 20.273 23.7781 20.2731C23.8353 20.2732 23.8926 20.2709 23.9498 20.269C23.9695 20.2684 23.9919 20.28 23.9837 20.298C23.98 20.3059 23.9747 20.3066 23.9764 20.3152C23.9777 20.3226 23.978 20.3302 23.9777 20.338C23.972 20.5387 23.9728 20.7394 23.9778 20.94C23.9778 20.9495 23.9775 20.9591 23.9775 20.9686C23.9773 20.9902 23.9688 21 23.9451 20.9999C23.7596 20.9991 23.574 20.9995 23.3885 20.9995C23.3791 20.9995 23.3698 20.9966 23.3605 20.9965C23.2739 20.9962 23.1872 20.9959 23.1006 20.9955C23.0748 20.9954 23.0485 20.9924 23.0227 20.9924C22.7895 20.9922 22.5563 20.9923 22.3232 20.9923C22.2835 20.9923 22.2802 20.9899 22.2803 20.9503C22.2803 20.8944 22.2769 20.8386 22.28 20.7826C22.2822 20.7451 22.2899 20.7352 22.3289 20.7306C22.362 20.7266 22.3955 20.7294 22.4286 20.7289C22.4493 20.7268 22.473 20.7407 22.4899 20.7175C22.49 20.7175 22.4899 20.7175 22.4899 20.7175Z" fill="white"/>
<path id="Vector_9" d="M19.0447 22.7515C19.0447 22.7516 19.0448 22.7516 19.0449 22.7516C19.1076 22.7387 19.1704 22.7501 19.233 22.752C19.2571 22.7528 19.2659 22.7475 19.2658 22.7214C19.2648 22.5159 19.2648 22.3103 19.2656 22.1047C19.2658 22.0798 19.2586 22.0726 19.2336 22.0727C19.0471 22.073 18.8605 22.0725 18.674 22.071C18.5173 22.0698 18.3605 22.067 18.2038 22.0647C18.2009 22.0646 18.2014 22.0602 18.2042 22.0602C18.3101 22.0596 18.4159 22.0586 18.5219 22.0586C18.7572 22.0587 18.9926 22.0601 19.2279 22.059C19.264 22.0589 19.2744 22.069 19.2741 22.1052C19.2724 22.3108 19.2726 22.5165 19.2739 22.7222C19.2741 22.7519 19.2659 22.761 19.2361 22.7594C19.19 22.757 19.1443 22.7701 19.0978 22.7663C19.0789 22.7647 19.0601 22.7647 19.0447 22.7515Z" fill="white"/>
<path id="Vector_10" d="M24.1564 20.9868C24.1564 20.9868 24.1564 20.9868 24.1564 20.9868C24.5275 20.9869 24.8986 20.9872 25.2698 20.9872C25.4482 20.9872 25.6267 20.9859 25.805 20.9872C25.8384 20.9874 25.8473 20.9769 25.8471 20.9443C25.8461 20.7284 25.847 20.5125 25.8473 20.2966C25.8473 20.2908 25.8511 20.2829 25.8541 20.2878C25.8574 20.2934 25.8594 20.2997 25.8598 20.3061C25.8652 20.3961 25.8555 20.486 25.8576 20.5758C25.8617 20.6216 25.8613 20.6682 25.8615 20.7142C25.8616 20.7575 25.8618 20.8008 25.8624 20.8441C25.863 20.8821 25.8633 20.9202 25.8673 20.9579C25.8706 20.9888 25.8594 20.9949 25.8303 20.9948C25.373 20.994 24.9158 20.9944 24.4584 20.9946C24.3681 20.9946 24.2779 20.9949 24.1876 20.9943C24.1772 20.9943 24.1637 21.0015 24.1563 20.9868C24.1563 20.9868 24.1564 20.9868 24.1564 20.9868Z" fill="white"/>
<path id="Vector_11" d="Mnan nanL23.8747 22.9173C23.8602 22.8965 23.8728 22.8755 23.8764 22.8558C23.8821 22.8243 23.8909 22.7933 23.8993 22.7623C23.9026 22.7497 23.9047 22.7266 23.9168 22.7312C23.9271 22.7351 23.9172 22.7509 23.9152 22.7618C23.8699 22.9973 23.8709 23.2327 23.9167 23.4681C23.9182 23.4756 23.9223 23.4868 23.915 23.4889C23.9068 23.4913 23.9024 23.4769 23.8997 23.4688C23.8836 23.419 23.8745 23.3676 23.8642 23.3164C23.862 23.3054 23.8719 23.2955 23.872 23.2843C23.8721 23.2729 23.8697 23.2613 23.8729 23.2503C23.8739 23.2468 23.8733 23.2417 23.8699 23.2403C23.8616 23.2367 23.8538 23.2395 23.8539 23.2305C23.8545 23.1968 23.8482 23.167 23.8542 23.1372C23.8542 23.1372 23.8542 23.1372 23.8541 23.1372C23.8541 23.1372 23.8541 23.1372 23.8541 23.1372C23.8573 23.1444 23.8606 23.1516 23.8638 23.1587C23.8649 23.1611 23.8683 23.1607 23.8687 23.1581C23.8734 23.1302 23.8737 23.1023 23.8698 23.0744C23.8686 23.066 23.8543 23.0731 23.8548 23.0646C23.8563 23.0397 23.8462 23.0117 23.8591 22.989C23.866 22.9771 23.8718 22.9636 23.8711 22.9499C23.8706 22.939 23.8718 22.9282 23.8747 22.9173Lnan nanZ" fill="white"/>
<path id="Vector_12" d="M21.4074 20.7126C21.4148 20.7125 21.4157 20.723 21.4085 20.7247C21.3047 20.7496 21.1991 20.7348 21.0945 20.7386C21.0612 20.7398 21.0278 20.7373 20.9946 20.7391C20.9688 20.7406 20.962 20.7304 20.9625 20.7061C20.9638 20.6467 20.9633 20.5872 20.9624 20.5277C20.961 20.4398 20.9575 20.352 20.957 20.2642C20.9568 20.2132 20.9606 20.1622 20.9626 20.1113C20.9632 20.0975 20.9715 20.1066 20.9716 20.1203C20.9716 20.1227 20.9716 20.1251 20.9716 20.1275C20.9719 20.3123 20.9722 20.4972 20.9725 20.682C20.9725 20.6887 20.9721 20.6954 20.9731 20.7019C20.9746 20.7119 20.9839 20.7182 20.9939 20.7197C21.022 20.724 21.0511 20.7184 21.079 20.7248C21.0824 20.7255 21.0835 20.7232 21.0838 20.7197C21.0839 20.7184 21.0855 20.7174 21.0869 20.7174L21.4074 20.7126Z" fill="white"/>
<path id="Vector_13" d="M24.8683 19.9601C24.8683 19.9601 24.8683 19.9601 24.8683 19.9601C24.8625 19.9249 24.8612 19.8894 24.8612 19.8538C24.8612 19.6363 24.8615 19.4189 24.8594 19.2015C24.859 19.1661 24.8696 19.1581 24.9031 19.1584C24.9718 19.1592 25.0406 19.1548 25.1094 19.1527C25.1294 19.1521 25.107 19.1667 25.0871 19.1678C25.0395 19.1704 24.992 19.1762 24.9442 19.1744C24.9307 19.1739 24.918 19.1738 24.9049 19.1709C24.8793 19.1651 24.8717 19.1982 24.8716 19.2244C24.8714 19.279 24.8693 19.3335 24.8739 19.388C24.8735 19.5743 24.8732 19.7607 24.8727 19.947C24.8727 19.9514 24.8699 19.9558 24.8684 19.9601C24.8684 19.9601 24.8684 19.9601 24.8683 19.9601Z" fill="white"/>
<path id="Vector_14" d="Mnan nanL21.5462 19.7952C21.5368 19.7952 21.5274 19.7952 21.5179 19.7951C21.5132 19.7951 21.5086 19.7937 21.5041 19.7922C21.4963 19.7896 21.4881 19.7894 21.4797 19.7892C21.3805 19.7875 21.2811 19.793 21.182 19.7857C21.1681 19.7847 21.1542 19.7904 21.1404 19.7907C21.0894 19.7917 21.0391 19.779 20.988 19.782C20.9722 19.7829 20.9682 19.7739 20.9679 19.7598C20.9635 19.5689 20.9587 19.378 20.962 19.1871C20.9622 19.1799 20.963 19.1729 20.9689 19.1677C20.9733 19.1637 20.9765 19.1719 20.9765 19.1779C20.976 19.3683 20.9759 19.5588 20.9745 19.7492C20.9742 19.7775 20.9904 19.7751 21.0088 19.7751C21.1833 19.775 21.3578 19.7749 21.5324 19.7753C21.5413 19.7753 21.5511 19.7724 21.5598 19.7754C21.5662 19.7777 21.5664 19.7861 21.5599 19.7882C21.5549 19.7898 21.5495 19.7907 21.5462 19.7952Lnan nanZ" fill="white"/>
<path id="Vector_15" d="Mnan nanL22.4399 20.7384C22.3973 20.7411 22.3545 20.7371 22.312 20.7437C22.2957 20.7463 22.29 20.7524 22.2901 20.7686C22.2907 20.8339 22.2911 20.8992 22.29 20.9645C22.2895 20.9944 22.31 20.9883 22.3267 20.9884C22.5296 20.9891 22.7326 20.9891 22.9356 20.9906C22.9557 20.9907 22.9551 20.9965 22.935 20.9966C22.9184 20.9967 22.9018 20.9968 22.8852 20.9968C22.6909 20.9968 22.4966 20.9966 22.3022 20.9961C22.2693 20.9961 22.2755 20.9585 22.2728 20.9256C22.2721 20.9168 22.2715 20.9089 22.2727 20.9029C22.271 20.921 22.2631 20.9213 22.263 20.9031C22.2627 20.8676 22.2654 20.832 22.2629 20.7966C22.2627 20.7943 22.2625 20.7919 22.2623 20.7896C22.2607 20.7725 22.271 20.7728 22.2732 20.7898C22.273 20.7865 22.273 20.7831 22.2731 20.7798C22.2738 20.7585 22.2713 20.7292 22.2925 20.7264C22.3325 20.7245 22.3726 20.7243 22.4126 20.7252C22.4229 20.7254 22.4377 20.72 22.4399 20.7384Lnan nanZ" fill="white"/>
<path id="Vector_16" d="M26.2536 20.2686C26.2537 20.2685 26.2538 20.2686 26.2538 20.2686C26.2596 20.2757 26.2697 20.2834 26.2493 20.2832C26.2029 20.2826 26.1567 20.2827 26.1103 20.2824C26.056 20.2821 26.0616 20.2755 26.0614 20.3321C26.061 20.4365 26.0612 20.541 26.0541 20.6455V20.4313C26.0541 20.4291 26.0524 20.4273 26.0502 20.4273C26.048 20.4273 26.0462 20.4291 26.0462 20.4313C26.0462 20.5157 26.0464 20.6 26.046 20.6844C26.046 20.6974 26.0401 20.6963 26.0398 20.6833C26.037 20.5521 26.0343 20.4209 26.0317 20.2896C26.0315 20.2763 26.0423 20.2797 26.0431 20.293C26.0443 20.3138 26.0419 20.3348 26.0436 20.3556C26.0441 20.3611 26.0537 20.362 26.0487 20.3645C26.0469 20.3655 26.0458 20.365 26.0456 20.363C26.0421 20.3326 26.0408 20.3023 26.0457 20.272C26.0462 20.2689 26.0483 20.2662 26.0511 20.2647L26.0524 20.2641C26.0541 20.2633 26.0561 20.2632 26.0579 20.2637C26.0642 20.2655 26.0706 20.2654 26.0762 20.2651C26.0791 20.2649 26.0805 20.2652 26.078 20.2638C26.0764 20.2628 26.076 20.2596 26.0779 20.2592C26.1258 20.2472 26.1742 20.2593 26.2227 20.2604C26.2007 20.2614 26.1787 20.2624 26.1567 20.2634C26.1553 20.2635 26.1542 20.2646 26.1542 20.266C26.1542 20.2675 26.1554 20.2686 26.1568 20.2686H26.2536C26.2536 20.2686 26.2536 20.2686 26.2536 20.2686Z" fill="white"/>
<path id="Vector_17" d="Mnan nanL23.9706 20.9376C23.9636 20.7463 23.9626 20.5551 23.9697 20.3638C23.9703 20.3469 23.981 20.3404 23.9838 20.3571C23.9977 20.4387 23.9902 20.5227 23.9902 20.6055C23.9902 20.6246 23.9902 20.6437 23.9902 20.6628C23.9902 20.7468 23.9978 20.8321 23.9838 20.9149C23.9819 20.9239 23.9867 20.9368 23.9706 20.9376Lnan nanZ" fill="white"/>
<path id="Vector_18" d="M22.2066 22.0675C22.2065 22.0675 22.2065 22.0676 22.2064 22.0676C22.1942 22.0786 22.1793 22.0739 22.1656 22.0739C21.9543 22.0742 21.7429 22.0741 21.5316 22.074C21.5148 22.074 21.508 22.0648 21.5247 22.064C21.5661 22.0617 21.6077 22.0666 21.6492 22.0612C21.835 22.0595 22.0208 22.0609 22.2066 22.0675Z" fill="white"/>
<path id="Vector_19" d="Mnan nanL17.4856 18.896C17.4392 18.8993 17.393 18.8969 17.3469 18.8941C17.331 18.8931 17.3307 18.8835 17.3466 18.8835C17.5253 18.8833 17.7041 18.8839 17.8828 18.8846C17.8978 18.8846 17.8975 18.894 17.8826 18.8953C17.8379 18.8993 17.7928 18.8969 17.7478 18.8961C17.6604 18.8916 17.573 18.8917 17.4856 18.896Lnan nanZ" fill="white"/>
<path id="Vector_20" d="M20.9766 19.1671C20.9764 19.1671 20.9763 19.1671 20.9762 19.1671C20.9743 19.1668 20.974 19.1642 20.9759 19.1635C20.9992 19.1557 21.0232 19.1523 21.0478 19.1523C21.1654 19.1523 21.2829 19.1526 21.4005 19.1523C21.4258 19.1523 21.4192 19.172 21.394 19.1715C21.2762 19.1693 21.1584 19.167 21.0405 19.1651C21.0192 19.1647 20.9979 19.1664 20.9766 19.1671Z" fill="white"/>
<path id="Vector_21" d="M24.5039 23.3591C24.5039 23.3591 24.5039 23.3591 24.5039 23.3591C24.5098 23.3584 24.5176 23.3598 24.5211 23.3565C24.5476 23.3324 24.5793 23.3455 24.6083 23.3442C24.6814 23.3409 24.7546 23.3455 24.8276 23.3513C24.8471 23.3528 24.8376 23.3656 24.8181 23.3655C24.7259 23.3651 24.6338 23.3647 24.5416 23.364C24.529 23.3639 24.5155 23.3679 24.5039 23.3591C24.5039 23.359 24.5039 23.3591 24.5039 23.3591Z" fill="white"/>
<path id="Vector_22" d="M18.1651 23.6372C18.1651 23.6372 18.1651 23.6372 18.1651 23.6372C18.1648 23.5386 18.1648 23.44 18.1641 23.3415C18.1639 23.3161 18.1717 23.3035 18.2001 23.3007C18.2967 23.2912 18.3932 23.2962 18.4897 23.2964C18.4955 23.2964 18.5028 23.3012 18.498 23.3043C18.4968 23.3051 18.4949 23.3055 18.4935 23.3056C18.4902 23.3058 18.4869 23.3059 18.4836 23.3058C18.4392 23.3075 18.3946 23.3024 18.3502 23.3085C18.3016 23.3088 18.2529 23.3098 18.2044 23.3089C18.1842 23.3086 18.1771 23.3155 18.1777 23.3356C18.1787 23.3676 18.1774 23.3996 18.1771 23.4317C18.1712 23.4905 18.1764 23.5494 18.174 23.6083C18.1736 23.6179 18.1832 23.6325 18.1651 23.6372C18.1651 23.6372 18.165 23.6372 18.1651 23.6372Z" fill="white"/>
<path id="Vector_23" d="Mnan nanL25.2753 20.7109C25.2579 20.7184 25.2388 20.7199 25.2212 20.7252C25.2023 20.7309 25.1842 20.7362 25.1644 20.7397C25.1045 20.7504 25.0457 20.7353 24.9864 20.7379C24.981 20.7381 24.9757 20.7323 24.9809 20.731C24.9863 20.7297 24.986 20.7247 24.9806 20.7241C24.9799 20.7241 24.9793 20.724 24.9787 20.724C24.9696 20.7234 24.9719 20.7169 24.981 20.7168C25.0791 20.7148 25.1772 20.7129 25.2753 20.7109Lnan nanZ" fill="white"/>
<path id="Vector_24" d="M19.4987 18.9591C19.5015 19.0123 19.5059 19.0655 19.5064 19.1188C19.5066 19.1446 19.5126 19.1542 19.5402 19.1533C19.5995 19.1513 19.659 19.1525 19.7183 19.1531C19.7336 19.1532 19.7489 19.1558 19.7641 19.1579C19.7771 19.1596 19.7942 19.1615 19.7907 19.1789C19.7867 19.1991 19.7494 19.1759 19.7291 19.1724C19.7004 19.1675 19.671 19.1683 19.6419 19.166C19.6133 19.1596 19.5842 19.1649 19.5554 19.1631C19.5169 19.1631 19.4972 19.1443 19.4964 19.1066C19.4962 19.1017 19.4965 19.0968 19.495 19.0921C19.4944 19.0902 19.4938 19.0881 19.4937 19.086C19.4924 19.0436 19.4895 19.0011 19.4987 18.9591C19.4987 18.959 19.4987 18.959 19.4987 18.9591Z" fill="white"/>
<path id="Vector_25" d="M20.5082 23.8876C20.5082 23.8877 20.5082 23.8877 20.5082 23.8877C20.504 23.9042 20.4902 23.9003 20.4791 23.9005C20.4376 23.9014 20.3961 23.9022 20.3546 23.9022C20.331 23.9022 20.321 23.9114 20.3218 23.9363C20.323 23.9799 20.3225 24.0236 20.3223 24.072C20.3222 24.079 20.3125 24.0808 20.3094 24.0746C20.309 24.0737 20.3089 24.073 20.3089 24.072L20.3088 23.9182C20.3088 23.9158 20.308 23.914 20.309 23.9118C20.3142 23.9004 20.3154 23.8864 20.3279 23.887C20.3287 23.8871 20.3296 23.8871 20.3304 23.8871C20.3896 23.8871 20.4489 23.8874 20.5081 23.8876C20.5081 23.8876 20.5081 23.8876 20.5082 23.8876Z" fill="white"/>
<path id="Vector_26" d="M23.9684 20.9447C23.9689 20.9401 23.9725 20.9359 23.9744 20.9316C23.9774 20.9245 23.9849 20.9176 23.9869 20.925C23.9883 20.9303 23.9852 20.9374 23.9852 20.9422C23.9849 20.9787 23.9581 21.0017 23.9215 21.0016C23.7449 21.0014 23.5682 21.0011 23.3916 21.0006C23.3887 21.0006 23.3894 20.9959 23.3923 20.9959C23.5387 20.9956 23.6852 20.9953 23.8315 20.9951C23.8648 20.9951 23.8983 20.9931 23.9314 20.9961C23.9621 20.9989 23.9721 20.9873 23.9682 20.9586C23.9676 20.9541 23.968 20.9494 23.9684 20.9447Z" fill="white"/>
<path id="Vector_27" d="M18.1653 23.6372C18.1653 23.6372 18.1653 23.6371 18.1653 23.6371C18.1783 23.585 18.1677 23.5319 18.1716 23.4795C18.1728 23.4635 18.1774 23.4649 18.1775 23.481C18.1777 23.5766 18.178 23.6723 18.1782 23.768C18.1783 23.7893 18.1677 23.7903 18.1659 23.769C18.1622 23.7254 18.1652 23.6812 18.1653 23.6372Z" fill="white"/>
<path id="Vector_28" d="Mnan nanL23.2623 18.9882C23.2625 18.9906 23.2622 18.9931 23.2629 18.9953C23.2655 19.003 23.2675 19.0017 23.2677 18.9946C23.2682 18.9745 23.2687 18.9543 23.2691 18.9342C23.2694 18.922 23.2771 18.9201 23.2771 18.9323C23.2769 19.0019 23.2765 19.0716 23.2761 19.1413C23.2761 19.1533 23.2646 19.1509 23.2611 19.1394C23.2464 19.0908 23.2593 19.0401 23.2563 18.9906C23.2562 18.9896 23.2563 18.9884 23.2569 18.9875C23.2584 18.9852 23.2602 18.9853 23.2623 18.9882Lnan nanZ" fill="white"/>
<path id="Vector_29" d="Mnan nanL22.8831 18.8944C22.7813 18.8949 22.6795 18.898 22.5777 18.8944C22.5553 18.8936 22.555 18.8819 22.5774 18.8824C22.6225 18.8884 22.6678 18.8834 22.7129 18.885C22.7676 18.8852 22.8224 18.8846 22.877 18.8853C22.8776 18.8853 22.8781 18.8853 22.8787 18.8855C22.8835 18.8865 22.885 18.8895 22.8831 18.8944Lnan nanZ" fill="white"/>
<path id="Vector_30" d="M20.2928 22.0657C20.2928 22.0657 20.2928 22.0657 20.2928 22.0657C20.2084 22.0678 20.1241 22.0699 20.0396 22.072C20.0172 22.0726 19.9947 22.0695 19.9722 22.07C19.9623 22.0702 19.9524 22.071 19.9426 22.0714C19.9275 22.0721 19.9347 22.0606 19.9498 22.0606C20.0574 22.0607 20.1649 22.0608 20.2726 22.0612C20.2793 22.0612 20.286 22.064 20.2928 22.0656C20.2928 22.0656 20.2928 22.0656 20.2928 22.0657Z" fill="white"/>
<path id="Vector_31" d="M23.2462 24.164C23.2462 24.164 23.2462 24.164 23.2462 24.164C23.2499 24.1535 23.2528 24.1429 23.2552 24.1322C23.2647 24.0882 23.2829 24.0864 23.2748 24.1307C23.2721 24.1457 23.2626 24.1588 23.2462 24.164C23.2461 24.164 23.2461 24.164 23.2462 24.164Z" fill="white"/>
<path id="Vector_32" d="M19.7629 23.8954C19.7629 23.8954 19.763 23.8954 19.7629 23.8954C19.7513 23.9218 19.7585 23.9499 19.7565 23.9772C19.756 23.9849 19.7511 23.9864 19.7508 23.9787C19.7484 23.9028 19.7485 23.9031 19.6743 23.9028C19.6344 23.9026 19.5945 23.9015 19.5546 23.9008C19.5473 23.9006 19.5404 23.898 19.5341 23.8943C19.525 23.8889 19.5361 23.8799 19.5466 23.8813C19.562 23.8833 19.5773 23.8854 19.5927 23.8875C19.6316 23.8934 19.6705 23.8923 19.7095 23.8887C19.712 23.8885 19.7145 23.8885 19.7171 23.8884C19.7327 23.8882 19.7492 23.8817 19.7629 23.8954C19.7629 23.8954 19.7629 23.8954 19.7629 23.8954Z" fill="white"/>
<path id="Vector_33" d="M25.8528 20.5808C25.8528 20.5808 25.8529 20.5808 25.8529 20.5808C25.8526 20.4964 25.8522 20.412 25.8521 20.3276C25.8521 20.3133 25.8627 20.3139 25.8652 20.328C25.8709 20.3606 25.8697 20.3938 25.8668 20.4262C25.8622 20.4775 25.863 20.5288 25.8593 20.5799C25.8592 20.5806 25.859 20.5814 25.8585 20.582C25.8566 20.5842 25.8547 20.584 25.8528 20.5809C25.8528 20.5809 25.8528 20.5808 25.8528 20.5808Z" fill="white"/>
<path id="Vector_34" d="M22.4405 20.7385C22.4404 20.7385 22.4404 20.7385 22.4403 20.7385C22.4139 20.7242 22.3855 20.735 22.3581 20.732C22.3307 20.7291 22.3304 20.7161 22.3579 20.717C22.3733 20.7175 22.3887 20.7186 22.4039 20.718C22.4286 20.7169 22.4534 20.7175 22.4782 20.7177C22.4826 20.7177 22.4829 20.7233 22.4815 20.7276C22.48 20.7323 22.4807 20.7385 22.4758 20.7385H22.4405Z" fill="white"/>
<path id="Vector_35" d="Mnan nanL25.1539 19.1344C25.1417 19.1478 25.1404 19.14 25.1407 19.1277C25.1414 19.0982 25.141 19.0686 25.1412 19.039C25.1415 19.0077 25.1543 19.007 25.1554 19.0383C25.1567 19.0702 25.1546 19.1023 25.1539 19.1344Lnan nanZ" fill="white"/>
<path id="Vector_36" d="M17.1149 19.1095C17.1131 19.0692 17.13 19.0688 17.1252 19.1088C17.123 19.1266 17.1208 19.1439 17.1224 19.1615C17.1226 19.1643 17.1176 19.1677 17.1174 19.1649C17.1167 19.1464 17.1157 19.128 17.1149 19.1095Z" fill="white"/>
<path id="Vector_37" d="M23.9908 20.481C23.9908 20.481 23.9908 20.4809 23.9907 20.4809C23.9773 20.44 23.9892 20.3964 23.9776 20.3552C23.976 20.3494 23.9774 20.3428 23.9751 20.337C23.9735 20.3332 23.9704 20.3301 23.9695 20.326C23.9668 20.3146 23.9718 20.3046 23.9767 20.2946C23.9818 20.2839 23.9915 20.2811 23.9915 20.2929C23.9915 20.3556 23.991 20.4183 23.9908 20.4809C23.9908 20.4809 23.9908 20.481 23.9908 20.481Z" fill="white"/>
<path id="Vector_38" d="M19.0214 18.9011C19.0214 18.9011 19.0214 18.9011 19.0214 18.9011C18.97 18.8926 18.9181 18.9008 18.8665 18.8979C18.826 18.8956 18.7854 18.8956 18.7449 18.8949C18.7392 18.8948 18.7318 18.8903 18.7365 18.887C18.7378 18.8861 18.7397 18.8858 18.7413 18.8857C18.7526 18.8851 18.7639 18.8855 18.7753 18.8854C18.8107 18.8842 18.8463 18.8868 18.8817 18.8853C18.9019 18.8845 18.9222 18.8836 18.9424 18.8841C18.9696 18.8846 18.9967 18.8855 19.0214 18.9011C19.0214 18.9011 19.0214 18.9011 19.0214 18.9011Z" fill="white"/>
<path id="Vector_39" d="M25.8523 20.2883C25.8524 20.2883 25.8523 20.2884 25.8523 20.2884C25.8501 20.2884 25.8478 20.2883 25.8455 20.2882C25.7943 20.2825 25.7428 20.2737 25.6924 20.2821C25.6595 20.2876 25.6354 20.2732 25.6687 20.2706C25.7164 20.269 25.7642 20.2733 25.8118 20.2688C25.8195 20.2681 25.8273 20.2678 25.8347 20.2697C25.8435 20.2718 25.8507 20.2761 25.8523 20.2883C25.8523 20.2883 25.8523 20.2883 25.8523 20.2883Z" fill="white"/>
<path id="Vector_40" d="M18.4949 23.3025C18.4949 23.3025 18.4949 23.3025 18.4949 23.3025C18.497 23.3023 18.4991 23.3023 18.5012 23.3022C18.5016 23.3022 18.5019 23.3021 18.5023 23.3021C18.5459 23.2936 18.5903 23.3034 18.634 23.2969C18.6357 23.2966 18.6374 23.2965 18.6391 23.2965C18.664 23.2969 18.6635 23.3094 18.6386 23.3101C18.5925 23.3114 18.5464 23.3081 18.5003 23.3083C18.4968 23.3084 18.4907 23.3075 18.4925 23.3045C18.4932 23.3032 18.494 23.3026 18.4949 23.3025C18.4949 23.3025 18.4949 23.3025 18.4949 23.3025Z" fill="white"/>
<path id="Vector_41" d="Mnan nanL22.8844 18.8902C22.8293 18.8895 22.7741 18.8888 22.719 18.888C22.7157 18.888 22.7093 18.8874 22.7112 18.8847C22.7121 18.8835 22.7128 18.8828 22.7137 18.8828C22.8055 18.8829 22.8972 18.883 22.9889 18.883C22.9905 18.883 22.9918 18.8843 22.9918 18.886C22.9918 18.8873 22.9908 18.8885 22.9895 18.8888C22.9546 18.896 22.9195 18.8923 22.8844 18.8902Lnan nanZ" fill="white"/>
<path id="Vector_42" d="M24.1404 23.8268C24.1404 23.8268 24.1404 23.8268 24.1404 23.8268C24.1389 23.8314 24.1392 23.8434 24.1331 23.8378C24.0916 23.7998 24.0487 23.763 24.0159 23.7167C24.0132 23.713 24.0229 23.7117 24.0258 23.7152C24.0596 23.7568 24.0976 23.7943 24.1404 23.8267C24.1404 23.8267 24.1404 23.8268 24.1404 23.8268Z" fill="white"/>
<path id="Vector_43" d="M23.9204 22.7447C23.9204 22.7447 23.9204 22.7447 23.9204 22.7447C23.9197 22.7375 23.9181 22.7355 23.9161 22.7358C23.91 22.7367 23.9062 22.7366 23.9068 22.7304C23.9093 22.7049 23.9205 22.6818 23.93 22.6582C23.9355 22.6449 23.9443 22.666 23.9401 22.6798L23.9203 22.7447C23.9203 22.7447 23.9204 22.7447 23.9204 22.7447Z" fill="white"/>
<path id="Vector_44" d="M23.9827 21.0021C23.9827 21.0021 23.9826 21.0021 23.9826 21.002C23.9817 20.9761 23.9886 20.9497 23.9792 20.9244C23.9777 20.9204 23.9771 20.9161 23.9779 20.9119C23.9819 20.8911 23.9901 20.8916 23.9902 20.9128C23.9902 20.9341 23.9903 20.9553 23.9903 20.9766C23.9903 20.9856 23.9927 20.9959 23.9827 21.0021C23.9827 21.0021 23.9827 21.0021 23.9827 21.0021Z" fill="white"/>
<path id="Vector_45" d="M24.5864 21.9938C24.5864 21.9938 24.5863 21.9938 24.5863 21.9938L24.557 22C24.5545 22.0006 24.5519 22.0007 24.5494 22.0004C24.5048 21.9961 24.4603 21.9963 24.4157 22.0007C24.4151 22.0008 24.4146 22.0008 24.414 22.0007C24.4062 21.9995 24.4064 21.9893 24.4142 21.9887C24.4716 21.9842 24.5289 21.9861 24.5863 21.9938C24.5863 21.9938 24.5864 21.9938 24.5864 21.9938Z" fill="white"/>
<path id="Vector_46" d="M19.9555 23.5427C19.9555 23.5428 19.9555 23.5428 19.9554 23.5428L19.7319 23.5426C19.7244 23.5426 19.7178 23.5346 19.7253 23.5336C19.7991 23.5331 19.8729 23.5331 19.9467 23.5335C19.9487 23.5335 19.9509 23.5336 19.9527 23.5344C19.9558 23.5359 19.9567 23.5386 19.9556 23.5427C19.9556 23.5427 19.9556 23.5427 19.9555 23.5427Z" fill="white"/>
<path id="Vector_47" d="M23.9062 23.48C23.9062 23.4801 23.9063 23.4801 23.9063 23.4801C23.9078 23.4802 23.9092 23.4808 23.9107 23.4815C23.9149 23.4833 23.9238 23.4866 23.9251 23.4909C23.9305 23.5083 23.9359 23.5258 23.9413 23.5432C23.9452 23.5558 23.9348 23.5697 23.9301 23.5573C23.9291 23.5547 23.9282 23.552 23.9273 23.5497C23.9175 23.5274 23.9072 23.5051 23.9062 23.48Z" fill="white"/>
<path id="Vector_48" d="M19.9136 22.0619C19.9189 22.0606 19.9253 22.0624 19.9305 22.0644C19.9312 22.0647 19.932 22.0649 19.9328 22.0652C19.9561 22.0725 19.9559 22.0747 19.9319 22.0794C19.9118 22.0833 19.8936 22.0664 19.9136 22.0619Z" fill="white"/>
<path id="Vector_49" d="M26.4511 20.6528C26.4511 20.6528 26.4511 20.6527 26.4511 20.6527C26.4314 20.6397 26.4187 20.62 26.4038 20.6025C26.3925 20.5892 26.4193 20.5953 26.4311 20.6082C26.4404 20.6184 26.4497 20.6286 26.459 20.6389C26.4628 20.643 26.4647 20.65 26.46 20.653C26.4578 20.6544 26.455 20.6546 26.4512 20.6528C26.4511 20.6528 26.4511 20.6528 26.4511 20.6528Z" fill="white"/>
<path id="Vector_50" d="M24.8608 23.7304C24.8578 23.7302 24.8555 23.7278 24.8555 23.7249V23.5187C24.8555 23.517 24.8569 23.5156 24.8585 23.5156C24.8601 23.5156 24.8613 23.5168 24.8615 23.5183C24.8693 23.58 24.8628 23.6419 24.8649 23.7037C24.8649 23.7043 24.8649 23.7049 24.8648 23.7054C24.8641 23.7139 24.8674 23.7229 24.8607 23.7304C24.8607 23.7304 24.8607 23.7304 24.8608 23.7304Z" fill="white"/>
<path id="Vector_51" d="M24.8742 19.3877C24.8742 19.3876 24.8741 19.3876 24.8741 19.3875C24.8617 19.3533 24.8701 19.3179 24.8687 19.2831C24.8672 19.2484 24.8685 19.2136 24.8688 19.1789C24.8688 19.1754 24.8705 19.1708 24.8736 19.1722C24.8757 19.1731 24.8762 19.1759 24.8762 19.1782C24.8755 19.248 24.8748 19.3178 24.8742 19.3877Z" fill="white"/>
<path id="Vector_52" d="M21.6495 22.0608C21.6495 22.0608 21.6495 22.0608 21.6495 22.0608C21.6138 22.0728 21.577 22.0635 21.5408 22.0668C21.5289 22.0678 21.5159 22.063 21.505 22.0699C21.5018 22.072 21.4983 22.0737 21.4945 22.0737C21.4929 22.0737 21.4913 22.0737 21.4897 22.0737C21.4779 22.0737 21.4782 22.0702 21.4885 22.0642C21.4918 22.0623 21.4949 22.0606 21.4987 22.0606L21.6495 22.0608C21.6495 22.0608 21.6495 22.0608 21.6495 22.0608Z" fill="white"/>
<path id="Vector_53" d="M26.7774 21.99C26.7858 21.9909 26.787 22.0026 26.7788 22.0006C26.7418 21.9965 26.7048 21.9958 26.6677 22.0011C26.6603 22.0028 26.6611 21.989 26.6687 21.9884C26.7049 21.9852 26.7412 21.9857 26.7774 21.99Z" fill="white"/>
<path id="Vector_54" d="Mnan nanL19.043 23.8885C19.0481 23.8912 19.0534 23.8927 19.0588 23.8936C19.0758 23.8964 19.0759 23.9031 19.0587 23.9023C19.0482 23.9019 19.0378 23.901 19.0274 23.9001C19.0103 23.8985 19.0091 23.8867 19.0262 23.8878C19.0318 23.8882 19.0374 23.8885 19.043 23.8885Lnan nanZ" fill="white"/>
<path id="Vector_55" d="Mnan nanL22.3711 23.3329C22.3723 23.3283 22.3755 23.3222 22.3799 23.3249C22.4019 23.3381 22.4186 23.3572 22.4327 23.3784C22.4374 23.3855 22.4211 23.3836 22.4146 23.378C22.3988 23.3643 22.3816 23.3519 22.3711 23.3329Lnan nanZ" fill="white"/>
<path id="Vector_56" d="M17.5837 19.9504C17.5786 19.9336 17.5964 19.9225 17.602 19.9391C17.6033 19.943 17.604 19.947 17.6041 19.951C17.6044 19.9648 17.5877 19.9636 17.5837 19.9504Z" fill="white"/>
<path id="Vector_57" d="M18.7694 18.8881L18.7667 18.8883C18.7457 18.8895 18.7247 18.8926 18.7037 18.8923C18.6977 18.8922 18.6918 18.8927 18.6861 18.8951C18.6856 18.8953 18.6851 18.8955 18.6845 18.8957C18.6752 18.8977 18.6755 18.8816 18.685 18.8812C18.7114 18.8801 18.738 18.8819 18.7644 18.8821C18.768 18.8822 18.7743 18.8836 18.772 18.8863C18.7712 18.8875 18.7703 18.8881 18.7693 18.8881H18.7694Z" fill="white"/>
<path id="Vector_58" d="M19.2611 19.7034C19.2669 19.7208 19.2466 19.7319 19.242 19.7142C19.2401 19.7067 19.2398 19.6983 19.2392 19.6902C19.2388 19.6857 19.2423 19.6816 19.2469 19.6816C19.2495 19.6816 19.252 19.6831 19.2533 19.6855C19.2564 19.6913 19.259 19.6973 19.2611 19.7034Z" fill="white"/>
<path id="Vector_59" d="M25.8233 20.2676C25.8233 20.2676 25.8233 20.2676 25.8233 20.2676C25.7871 20.2831 25.7493 20.2704 25.7124 20.2735C25.6987 20.2747 25.6849 20.2737 25.6711 20.2734C25.6681 20.2733 25.6626 20.2723 25.6644 20.2697C25.6651 20.2686 25.6659 20.2681 25.6667 20.2681C25.7189 20.2679 25.7711 20.2678 25.8233 20.2676C25.8233 20.2676 25.8234 20.2676 25.8233 20.2676Z" fill="white"/>
<path id="Vector_60" d="M19.6928 19.4821C19.6976 19.4826 19.7047 19.4733 19.707 19.4829C19.7112 19.4998 19.705 19.5163 19.6971 19.5306C19.6911 19.5413 19.6807 19.5123 19.6839 19.5005C19.6856 19.494 19.6882 19.4878 19.6926 19.4822C19.6927 19.4821 19.6927 19.4821 19.6928 19.4821Z" fill="white"/>
<path id="Vector_61" d="Mnan nanL21.0842 20.7179C21.0831 20.7227 21.0998 20.7305 21.0857 20.7306C21.0496 20.7307 21.0135 20.7258 20.9774 20.7228C20.977 20.7228 20.9764 20.7208 20.9766 20.7199C20.977 20.7177 20.9797 20.7168 20.9818 20.7168C21.016 20.7172 21.0501 20.7176 21.0842 20.7179Lnan nanZ" fill="white"/>
<path id="Vector_62" d="Mnan nanL21.7852 19.5032C21.7904 19.5027 21.7935 19.486 21.7994 19.4992C21.8033 19.5081 21.8083 19.5172 21.8109 19.5266C21.8156 19.5437 21.7949 19.5444 21.7902 19.5273C21.788 19.5194 21.7863 19.5114 21.7852 19.5032Lnan nanZ" fill="white"/>
<path id="Vector_63" d="M18.7728 18.8888C18.771 18.8888 18.7697 18.8873 18.7698 18.8856C18.7699 18.884 18.7712 18.8828 18.7727 18.8828C18.7774 18.8829 18.7821 18.8829 18.7868 18.8829C18.8053 18.8831 18.8059 18.8893 18.7873 18.8889C18.7825 18.8888 18.7776 18.8888 18.7728 18.8888Z" fill="white"/>
<path id="Vector_64" d="M18.4937 23.3019C18.4937 23.305 18.4912 23.3077 18.488 23.3077C18.4838 23.3077 18.4795 23.3077 18.4753 23.3077C18.4552 23.3077 18.4546 23.3024 18.4746 23.3024C18.481 23.3024 18.4873 23.3022 18.4936 23.3018C18.4937 23.3018 18.4937 23.3018 18.4937 23.3019Z" fill="white"/>
<path id="Vector_65" d="M19.4926 19.1068C19.4923 19.1033 19.4973 19.1024 19.4976 19.1058C19.5001 19.14 19.5175 19.1583 19.5499 19.1607C19.5532 19.1609 19.5595 19.1615 19.5576 19.1644C19.5569 19.1656 19.556 19.1662 19.5551 19.1662C19.5165 19.1679 19.4956 19.1481 19.4926 19.1068Z" fill="white"/>
<path id="Vector_66" d="M22.7106 18.8828C22.7119 18.8828 22.713 18.8839 22.713 18.8853C22.7131 18.8867 22.712 18.8879 22.7106 18.8879C22.7046 18.8879 22.6986 18.888 22.6925 18.8882C22.6727 18.8888 22.6734 18.8828 22.6933 18.8828C22.6991 18.8828 22.7048 18.8828 22.7106 18.8828Z" fill="white"/>
<path id="Vector_67" d="M19.6493 23.8871C19.6586 23.8872 19.6592 23.8953 19.6499 23.8952C19.6495 23.8952 19.649 23.8951 19.6485 23.8951C19.6394 23.8949 19.6402 23.887 19.6493 23.8871Z" fill="white"/>
<path id="Vector_68" d="Mnan nanL26.0461 20.2656V20.3643C26.0461 20.3663 26.0446 20.3678 26.0427 20.3679C26.0407 20.3679 26.0391 20.3663 26.0391 20.3643V20.2704C26.0391 20.2685 26.0404 20.2668 26.0422 20.2665L26.0461 20.2656Lnan nanZ" fill="white"/>
<path id="Vector_69" d="M19.9571 23.5436C19.9569 23.5407 19.9591 23.5382 19.962 23.5376C19.9907 23.5316 20.0193 23.5316 20.0479 23.5384C20.049 23.5387 20.0498 23.5398 20.0498 23.541C20.0497 23.5424 20.0486 23.5436 20.0472 23.5436C20.0171 23.5436 19.9872 23.5436 19.9571 23.5436C19.9571 23.5436 19.9571 23.5436 19.9571 23.5436Z" fill="white"/>
<path id="Vector_70" d="Mnan nanL19.5549 19.1669C19.5549 19.1661 19.5549 19.1652 19.5549 19.1644C19.5548 19.1629 19.5561 19.1616 19.5576 19.1617C19.5623 19.1618 19.5671 19.1617 19.5719 19.1614C19.5877 19.1607 19.5868 19.167 19.571 19.1669C19.5656 19.1669 19.5603 19.1669 19.5549 19.1669Lnan nanZ" fill="white"/>
<path id="Vector_71" d="M26.4592 20.6613C26.4557 20.6575 26.4572 20.6515 26.4618 20.6491C26.465 20.6475 26.4688 20.648 26.4714 20.6503C26.4724 20.6512 26.4735 20.6521 26.4745 20.653C26.4821 20.6596 26.4797 20.6728 26.4703 20.6694C26.4662 20.6679 26.4625 20.665 26.4592 20.6613Z" fill="white"/>
<path id="Vector_72" d="M25.6694 20.268C25.6694 20.271 25.667 20.2733 25.664 20.2735C25.6483 20.2745 25.6335 20.2767 25.6339 20.2971C25.6339 20.2998 25.6318 20.3021 25.6291 20.302C25.6269 20.3019 25.6251 20.3001 25.6251 20.298C25.6238 20.2671 25.6421 20.2617 25.6693 20.2679C25.6693 20.2679 25.6694 20.2679 25.6694 20.268Z" fill="white"/>
<path id="Vector_73" d="M25.8529 20.5855C25.8528 20.5837 25.8543 20.5821 25.8561 20.5822C25.8578 20.5823 25.8591 20.5836 25.8591 20.5852L25.8592 20.5978C25.8592 20.6124 25.8515 20.6139 25.8525 20.5993C25.8528 20.5947 25.8531 20.5901 25.8529 20.5855Z" fill="white"/>
<path id="Vector_74" d="M21.561 19.7956C21.553 19.7952 21.5431 19.7863 21.5499 19.7822C21.553 19.7803 21.558 19.7817 21.5625 19.7823C21.5669 19.7829 21.5724 19.7836 21.5745 19.7875C21.5768 19.7921 21.5719 19.7962 21.5667 19.7959C21.5648 19.7958 21.5629 19.7957 21.561 19.7956Z" fill="white"/>
<path id="Vector_75" d="M19.5277 23.879C19.5277 23.879 19.5277 23.8791 19.5277 23.8791C19.5286 23.8829 19.5314 23.8854 19.5343 23.8879C19.5408 23.8936 19.5348 23.902 19.5266 23.8993C19.5178 23.8963 19.5176 23.8887 19.524 23.8773C19.5251 23.8754 19.5276 23.8757 19.5277 23.8779C19.5277 23.8782 19.5278 23.8786 19.5277 23.8789C19.5277 23.879 19.5277 23.879 19.5277 23.879Z" fill="white"/>
<path id="Vector_76" d="M22.2697 20.7571C22.2708 20.7529 22.276 20.7523 22.2771 20.7564C22.2776 20.7582 22.2779 20.7599 22.2781 20.7617C22.2791 20.7694 22.2702 20.7686 22.2697 20.7608C22.2697 20.7601 22.2696 20.7593 22.2696 20.7586C22.2695 20.7581 22.2696 20.7576 22.2697 20.7571Z" fill="white"/>
<path id="Vector_77" d="M24.875 19.1758C24.8748 19.1758 24.8746 19.1758 24.8744 19.1758C24.872 19.1754 24.8715 19.1723 24.8738 19.1714C24.8777 19.1699 24.8816 19.1689 24.8855 19.1684C24.8931 19.1674 24.8925 19.1752 24.8847 19.1755C24.8815 19.1756 24.8782 19.1757 24.875 19.1758Z" fill="white"/>
<path id="Vector_78" d="M25.0391 22.7227C25.0391 22.7227 25.0391 22.7227 25.0391 22.7227C25.0416 22.723 25.0441 22.7233 25.0466 22.7236C25.0471 22.7236 25.0475 22.7237 25.0479 22.7238C25.0586 22.7266 25.0693 22.7294 25.0799 22.7322C25.0664 22.7289 25.0462 22.7542 25.0391 22.7227C25.0391 22.7227 25.0391 22.7227 25.0391 22.7227Z" fill="white"/>
<path id="Vector_79" d="M26.0731 20.2599C26.0735 20.2598 26.074 20.2598 26.0744 20.2599C26.0793 20.2606 26.0798 20.2677 26.0749 20.2683C26.0724 20.2686 26.0699 20.2686 26.0674 20.2683C26.062 20.2675 26.0633 20.2612 26.0688 20.2605L26.0731 20.2599Z" fill="white"/>
<path id="Vector_80" d="Mnan nanL19.7222 23.5389C19.7222 23.5396 19.7223 23.5403 19.7223 23.541C19.7224 23.5423 19.7214 23.5433 19.7201 23.5433C19.7077 23.5433 19.6952 23.5434 19.6828 23.5434C19.6811 23.5434 19.6797 23.5421 19.6797 23.5404C19.6797 23.5392 19.6804 23.5381 19.6814 23.5377C19.6951 23.5317 19.7087 23.5313 19.7222 23.5389Lnan nanZ" fill="white"/>
<path id="Vector_81" d="M20.3091 23.8946C20.3092 23.8946 20.3092 23.8946 20.3092 23.8946C20.3115 23.8947 20.3139 23.8949 20.3162 23.895C20.3194 23.8952 20.322 23.898 20.3205 23.9009C20.3195 23.9029 20.318 23.9046 20.3164 23.9062C20.3139 23.9086 20.3088 23.9064 20.3089 23.9029L20.3091 23.8946C20.3091 23.8946 20.3091 23.8946 20.3091 23.8946Z" fill="white"/>
<path id="Vector_82" d="Mnan nanL21.1641 19.7889C21.1733 19.778 21.1861 19.782 21.1975 19.7819C21.2901 19.7816 21.3828 19.7816 21.4754 19.7817C21.4951 19.7817 21.49 19.795 21.4704 19.7952C21.3682 19.7966 21.2661 19.7978 21.1641 19.7889Lnan nanZ" fill="white"/>
<path id="Vector_83" d="M17.4883 18.8957C17.4883 18.8957 17.4883 18.8957 17.4883 18.8957C17.5068 18.8841 17.5274 18.8904 17.5469 18.8901C17.6036 18.889 17.6603 18.8894 17.717 18.8897C17.7302 18.8898 17.7284 18.8957 17.7152 18.8957C17.6396 18.8957 17.5639 18.8957 17.4883 18.8957C17.4883 18.8957 17.4883 18.8957 17.4883 18.8957Z" fill="white"/>
<path id="Vector_84" d="M18.153 20.3398C18.153 20.3398 18.153 20.3399 18.153 20.3399C18.1612 20.356 18.167 20.3667 18.1824 20.3684C18.1899 20.3692 18.1932 20.3775 18.1904 20.3851C18.1886 20.3903 18.1855 20.3971 18.1812 20.3989C18.1736 20.4022 18.1679 20.3954 18.1644 20.3895C18.1565 20.3764 18.1504 20.3626 18.1529 20.3399C18.1529 20.3399 18.153 20.3398 18.153 20.3398Z" fill="white"/>
<path id="Vector_85" d="Mnan nanL18.6875 18.8953C18.7023 18.8849 18.7187 18.8898 18.7346 18.89C18.7359 18.8901 18.7369 18.8913 18.7369 18.8926C18.7368 18.8938 18.7359 18.8948 18.7347 18.8949C18.7189 18.895 18.7032 18.8951 18.6875 18.8953Lnan nanZ" fill="white"/>
<path id="Vector_86" d="M22.1544 22.343C22.2539 22.3483 22.3537 22.3504 22.4505 22.3777C22.5999 22.4197 22.664 22.5113 22.6525 22.667C22.6505 22.6953 22.6458 22.7235 22.6416 22.7516C22.6248 22.8644 22.5556 22.9262 22.4477 22.951C22.3979 22.9625 22.3473 22.968 22.2966 22.9732C22.223 22.9902 22.1482 22.9911 22.0732 22.9894C22.0319 22.987 21.9908 22.9902 21.9491 22.9846C21.9195 22.9805 21.9181 22.9672 21.9181 22.9451C21.9183 22.8418 21.9182 22.7385 21.9182 22.6352C21.9182 22.5497 21.9186 22.4643 21.918 22.3788C21.9178 22.3543 21.9208 22.3393 21.9522 22.339C21.9804 22.3388 22.009 22.3375 22.0374 22.3367C22.0763 22.3399 22.116 22.3297 22.1544 22.343C22.1544 22.343 22.1544 22.343 22.1544 22.343Z" fill="url(#paint1_radial_1672_5845)"/>
<path id="Vector_87" d="M19.7539 23.2654C19.7539 23.2654 19.754 23.2653 19.754 23.2653C19.834 23.0513 19.9058 22.8383 19.9957 22.6308C20.0114 22.5944 20.0635 22.5954 20.0772 22.6327C20.1487 22.8274 20.2199 23.0223 20.2912 23.2171C20.3055 23.2562 20.3047 23.2598 20.2623 23.2619C20.1947 23.2652 20.1269 23.2649 20.0591 23.2652C19.9594 23.2657 19.8596 23.2654 19.7539 23.2654Z" fill="url(#paint2_radial_1672_5845)"/>
<path id="Vector_88" d="M22.0438 22.3428C22.0166 22.3431 21.9892 22.3453 21.9621 22.3432C21.9355 22.3412 21.9276 22.35 21.9278 22.3769C21.929 22.5192 21.9284 22.6616 21.9284 22.8039C21.9284 22.8525 21.9295 22.9012 21.928 22.9497C21.9272 22.9734 21.9355 22.9805 21.9586 22.9797C21.9929 22.9786 22.0272 22.9796 22.0616 22.9802C22.071 22.9804 22.0776 22.9917 22.0683 22.9926C22.0554 22.9939 22.0425 22.9955 22.0296 22.9965C21.9811 23.0002 21.9113 22.9931 21.9143 22.9445C21.9177 22.8894 21.9153 22.834 21.9154 22.7787C21.9211 22.7004 21.9173 22.622 21.9175 22.5437C21.9177 22.4844 21.9208 22.425 21.9155 22.3657C21.9114 22.3431 21.9239 22.338 21.9434 22.3354C21.9919 22.3287 22.0405 22.33 22.089 22.3305C22.1055 22.3306 22.112 22.3368 22.0958 22.3397C22.0788 22.3425 22.061 22.3371 22.044 22.3428C22.0439 22.3428 22.0439 22.3428 22.0438 22.3428Z" fill="white"/>
<path id="Vector_89" d="M21.9563 22.989C21.9564 22.989 21.9564 22.989 21.9564 22.989C21.9935 22.9838 22.0314 22.992 22.0684 22.9845C22.0756 22.9831 22.0828 22.9818 22.0901 22.9815C22.1523 22.9795 22.2144 22.9774 22.2766 22.9754C22.2851 22.9751 22.288 22.9809 22.2796 22.9811C22.2707 22.9812 22.2709 22.9878 22.2798 22.9878H22.2851C22.2968 22.9878 22.2995 23.0008 22.2881 23.0033C22.2725 23.0069 22.2577 23.0077 22.2435 23.008C22.1521 23.0105 22.0605 23.009 21.969 23.0091C21.9597 23.0091 21.961 23.0004 21.9702 22.9994C22.0063 22.9952 22.0426 23.0002 22.0787 22.9988C22.1082 22.9975 22.1376 22.9985 22.167 22.9985C22.1776 22.9986 22.1782 22.9991 22.1677 22.9983C22.1085 22.9983 22.0494 22.9985 21.9904 22.998C21.9793 22.998 21.9673 23.002 21.9571 22.9943C21.9565 22.9939 21.9562 22.9933 21.9563 22.9926C21.9563 22.9914 21.9563 22.9903 21.9562 22.9891C21.9562 22.989 21.9563 22.989 21.9563 22.989Z" fill="white"/>
<path id="Vector_90" d="M19.7221 23.5378L19.6902 23.5375C19.6832 23.5374 19.6731 23.541 19.6695 23.5349C19.6643 23.5259 19.6735 23.5301 19.6755 23.5301C19.7311 23.5289 19.7867 23.5272 19.8423 23.5274C19.9553 23.5276 20.0683 23.5288 20.1813 23.5297C20.1848 23.5297 20.1911 23.5308 20.189 23.5336C20.1881 23.5346 20.1872 23.5352 20.1862 23.5352L20.0516 23.5377C20.0207 23.5377 19.9898 23.5376 19.9589 23.5375C19.88 23.5376 19.8011 23.5377 19.7222 23.5378H19.7221Z" fill="white"/>
<path id="Vector_91" d="M21.9125 22.3652C21.9125 22.3653 21.9125 22.3653 21.9125 22.3654C21.9205 22.373 21.9184 22.3829 21.9184 22.3921C21.9184 22.5119 21.9184 22.6317 21.9184 22.7515C21.9184 22.7624 21.9122 22.7607 21.912 22.7498C21.91 22.6217 21.9089 22.4934 21.9125 22.3652Z" fill="white"/>
<path id="Vector_92" d="M22.043 22.3428C22.043 22.3428 22.043 22.3428 22.0431 22.3428C22.0659 22.3271 22.094 22.3443 22.1174 22.3316C22.1185 22.331 22.1198 22.3306 22.1211 22.3306C22.164 22.3304 22.207 22.3302 22.25 22.3301C22.2536 22.3301 22.2603 22.3311 22.2581 22.3341C22.2572 22.3354 22.2563 22.336 22.2554 22.336C22.234 22.3386 22.2121 22.3356 22.1906 22.3367C22.1678 22.3378 22.1451 22.343 22.1222 22.3429L22.043 22.3428C22.043 22.3428 22.043 22.3428 22.043 22.3428Z" fill="white"/>
<path id="Vector_93" d="M21.9565 22.9922C21.9565 22.9922 21.9565 22.9922 21.9566 22.9922C22.0259 22.9929 22.0953 22.9936 22.1646 22.9943C22.1683 22.9943 22.1751 22.9948 22.1733 22.998C22.1725 22.9995 22.1717 23.0003 22.1708 23.0003C22.0975 23.0007 22.0241 23.001 21.9507 23.0015C21.9498 23.0015 21.9489 23.0014 21.9481 23.0013C21.9439 23.0006 21.9398 22.9999 21.9356 22.9992C21.9345 22.999 21.9337 22.9979 21.9337 22.9968C21.9338 22.9957 21.9346 22.9949 21.9357 22.9948C21.9426 22.9939 21.9495 22.9931 21.9565 22.9923C21.9565 22.9923 21.9565 22.9922 21.9565 22.9922Z" fill="white"/>
<path id="Vector_94" d="M20.1864 23.537C20.1848 23.5369 20.1837 23.5355 20.1838 23.534C20.1839 23.5324 20.1851 23.5312 20.1867 23.5312C20.1891 23.5312 20.1915 23.5312 20.194 23.5312C20.2059 23.5312 20.2065 23.5382 20.1946 23.5375C20.1919 23.5374 20.1891 23.5372 20.1864 23.537Z" fill="white"/>
<path id="Vector_95" d="M22.2569 22.336C22.2554 22.336 22.2542 22.3346 22.2542 22.333C22.2543 22.3314 22.2554 22.3301 22.257 22.3301C22.2737 22.3301 22.2905 22.3301 22.3072 22.3301C22.3088 22.3301 22.3102 22.3314 22.3102 22.333C22.3102 22.3346 22.3089 22.336 22.3072 22.336H22.2569Z" fill="white"/>
<path id="Vector_96" d="M26.7235 22.0017C26.7148 22.0018 26.7141 21.9942 26.7228 21.9941C26.7233 21.9941 26.7237 21.9941 26.7242 21.9941C26.7329 21.9941 26.7323 22.0017 26.7235 22.0017Z" fill="white"/>
<path id="Subtract" fill-rule="evenodd" clip-rule="evenodd" d="M26.8025 21.9939C26.8025 21.9939 26.8025 21.9939 26.8026 21.9939C27.0481 22.0111 27.2686 22.0932 27.4558 22.2544C27.6726 22.4411 27.7907 22.682 27.8295 22.9629C27.8675 23.2382 27.8223 23.4997 27.6731 23.736C27.5105 23.9935 27.2741 24.1468 26.974 24.2005C26.7265 24.2449 26.4827 24.2357 26.2505 24.1323C25.9026 23.9774 25.6977 23.7068 25.623 23.335C25.6098 23.2693 25.6083 23.2032 25.6068 23.1367L25.6059 23.0978C25.5992 22.8589 25.6712 22.6451 25.8084 22.4542C26.0047 22.181 26.2717 22.0278 26.6051 21.9956C26.6203 21.9942 26.6358 21.991 26.6508 21.9937C26.6632 21.9959 26.6759 21.9948 26.6885 21.9948H26.7731C26.7776 21.9954 26.782 21.9948 26.7865 21.9942L26.7865 21.9942C26.7918 21.9934 26.797 21.9927 26.8024 21.994C26.8024 21.994 26.8025 21.994 26.8025 21.9939ZM27.0384 22.3737C27.0374 22.3733 27.0363 22.3731 27.0352 22.3732L27.03 22.3736C27.03 22.3736 27.03 22.3736 27.03 22.3736C27.03 22.3736 27.0299 22.3736 27.0299 22.3736C26.9128 22.3119 26.7917 22.2679 26.6558 22.2881C26.4205 22.3232 26.2553 22.444 26.1796 22.6755C26.1398 22.7971 26.128 22.9224 26.1235 23.0489C26.1233 23.0554 26.1183 23.0569 26.1176 23.0505C26.1166 23.0401 26.1063 23.044 26.1049 23.0543C26.097 23.1115 26.1035 23.1801 26.121 23.2169C26.1215 23.2178 26.1219 23.2188 26.1222 23.2199C26.1228 23.2218 26.1231 23.2238 26.1231 23.2258C26.1223 23.3649 26.1508 23.4982 26.21 23.6236C26.2502 23.7087 26.3 23.7869 26.388 23.8356C26.458 23.8745 26.5294 23.9056 26.6074 23.9207C26.6142 23.922 26.6159 23.9283 26.6092 23.93C26.5987 23.9326 26.6025 23.9439 26.6133 23.9442C26.6275 23.9446 26.6404 23.9398 26.6519 23.9286C26.6523 23.9282 26.6529 23.9282 26.6534 23.9285C26.6535 23.9286 26.6537 23.9287 26.654 23.9287L26.6963 23.9305C26.9722 23.9426 27.1988 23.7844 27.2782 23.5233C27.3101 23.4186 27.3256 23.311 27.3319 23.202C27.332 23.2016 27.332 23.2013 27.3321 23.2009C27.3323 23.2003 27.3326 23.1997 27.333 23.1992C27.3505 23.1753 27.3516 23.1481 27.3528 23.12L27.3531 23.1129C27.3542 23.089 27.3471 23.0678 27.3399 23.0465L27.3399 23.0465L27.3399 23.0465L27.3399 23.0465L27.3399 23.0465L27.3399 23.0465C27.3372 23.0385 27.3345 23.0305 27.3323 23.0223C27.3322 23.0222 27.332 23.0222 27.332 23.0223L27.332 23.0226C27.332 23.0227 27.3319 23.0227 27.3318 23.0226L27.3294 22.9914L27.3294 22.9914V22.9914C27.3277 22.9687 27.3261 22.9459 27.3233 22.9233C27.3 22.7338 27.2532 22.5547 27.1 22.4233C27.0999 22.4232 27.1 22.423 27.1001 22.423C27.1001 22.423 27.1002 22.423 27.1002 22.4229C27.1004 22.4224 27.1007 22.422 27.101 22.4216C27.1014 22.421 27.1021 22.4215 27.1019 22.4221C27.1017 22.4225 27.102 22.4229 27.1024 22.423C27.114 22.4243 27.1216 22.4319 27.1299 22.4402C27.1379 22.4483 27.1466 22.4571 27.1603 22.4613C27.1608 22.4615 27.1613 22.4608 27.1609 22.4603L27.1609 22.4603C27.1417 22.4378 27.1271 22.4208 27.1079 22.4085C27.1076 22.4083 27.1072 22.4084 27.1071 22.4087C27.107 22.4091 27.1064 22.4092 27.1062 22.4088L27.106 22.4084C27.106 22.4083 27.1059 22.4082 27.1058 22.4082L27.0988 22.4024L27.0988 22.4024C27.0718 22.3799 27.0445 22.3573 27.0122 22.338C26.9983 22.3297 26.9911 22.3401 27.0051 22.3483C27.0169 22.3553 27.028 22.3618 27.0365 22.3718L27.0385 22.3736C27.0386 22.3736 27.0385 22.3738 27.0384 22.3737ZM26.7266 23.9406C26.7234 23.9406 26.7232 23.9374 26.7263 23.9375C26.7265 23.9375 26.7268 23.9375 26.727 23.9375C26.73 23.9377 26.7296 23.9406 26.7266 23.9406Z" fill="white"/>
<path id="Vector_97" d="M24.8603 23.7081C24.8604 23.7081 24.8604 23.7081 24.8604 23.708C24.86 23.6442 24.8597 23.5802 24.8594 23.5164C24.8594 23.5161 24.8597 23.516 24.8599 23.5161C24.86 23.5162 24.8602 23.5162 24.8603 23.516C24.862 23.5131 24.8636 23.513 24.8651 23.5153C24.8656 23.516 24.8658 23.517 24.8658 23.5179C24.8658 23.581 24.8658 23.644 24.8658 23.7071C24.8658 23.7078 24.8656 23.7086 24.8652 23.7092C24.8635 23.7118 24.8619 23.7116 24.8603 23.7081C24.8603 23.7081 24.8603 23.7081 24.8603 23.7081Z" fill="white"/>
<path id="Vector_98" d="M24.4903 22.0019C24.4812 22.0019 24.4812 21.9941 24.4903 21.9942C24.4992 21.9943 24.4992 22.0019 24.4903 22.0019Z" fill="white"/>
<path id="Vector_99" d="M23.8672 23.0582C23.8672 23.0583 23.8672 23.0583 23.8672 23.0582C23.8676 23.0572 23.8678 23.0558 23.8685 23.0551C23.8703 23.0535 23.8731 23.0553 23.8733 23.0577C23.8764 23.0955 23.8767 23.1334 23.8727 23.1712C23.8727 23.1715 23.8706 23.1719 23.8704 23.1716C23.868 23.1677 23.8672 23.163 23.8672 23.1584C23.8672 23.125 23.8672 23.0916 23.8672 23.0582Z" fill="white"/>
<path id="Vector_100" d="M24.4746 23.9452C24.4746 23.9452 24.4746 23.9452 24.4746 23.9452C24.4693 23.9445 24.4639 23.9438 24.4586 23.9431C24.4577 23.943 24.457 23.9422 24.457 23.9413C24.457 23.9403 24.4579 23.9395 24.4589 23.9395H24.5659C24.5668 23.9395 24.5675 23.9401 24.5675 23.941C24.5676 23.9418 24.567 23.9426 24.5662 23.9427L24.5553 23.9449C24.5545 23.945 24.5537 23.9452 24.553 23.9455C24.5269 23.9549 24.5008 23.9546 24.4746 23.9452C24.4746 23.9452 24.4746 23.9452 24.4746 23.9452Z" fill="white"/>
<path id="Vector_101" d="M24.4749 23.9454C24.4749 23.9454 24.4749 23.9454 24.4749 23.9454C24.4942 23.9454 24.5135 23.9454 24.5328 23.9454C24.5459 23.9453 24.5593 23.9598 24.5462 23.9584C24.5252 23.9531 24.5044 23.953 24.4834 23.9583C24.4832 23.9584 24.4829 23.9584 24.4827 23.9584C24.4714 23.9596 24.471 23.9538 24.4749 23.9454C24.4749 23.9454 24.4749 23.9454 24.4749 23.9454Z" fill="white"/>
<path id="Vector_102" d="M24.4915 22.2813C24.4974 22.2812 24.497 22.2863 24.4911 22.2863C24.4853 22.2863 24.4848 22.2813 24.4907 22.2813C24.4909 22.2813 24.4912 22.2813 24.4915 22.2813Z" fill="white"/>
<path id="Vector_103" d="Mnan nanL24.8608 23.707C24.8617 23.7072 24.8625 23.7073 24.8633 23.7073C24.8649 23.7074 24.8663 23.7086 24.8663 23.7102C24.8663 23.727 24.8663 23.7439 24.8663 23.7607C24.8663 23.7622 24.8652 23.7633 24.8638 23.7635C24.8622 23.7636 24.8608 23.7624 24.8607 23.7608C24.8603 23.7504 24.8598 23.74 24.8594 23.7296C24.8599 23.7221 24.8604 23.7146 24.8608 23.707Lnan nanZ" fill="white"/>
<path id="Vector_104" d="M24.5158 23.9575C24.5077 23.9575 24.5063 23.9494 24.5144 23.9492C24.5153 23.9492 24.5162 23.9492 24.5171 23.9492C24.5253 23.9494 24.5239 23.9575 24.5158 23.9575Z" fill="white"/>
<path id="Vector_105" d="M23.8672 23.2699C23.867 23.2612 23.8764 23.2632 23.8768 23.2719C23.8771 23.2807 23.8676 23.2797 23.8672 23.2709C23.8672 23.2706 23.8672 23.2703 23.8672 23.2699Z" fill="white"/>
<path id="Vector_106" d="M23.8555 23.1367C23.8556 23.1368 23.8557 23.1368 23.8557 23.1367V23.12C23.8557 23.1136 23.8632 23.1126 23.8627 23.1189C23.8622 23.1249 23.8602 23.1308 23.8555 23.1366C23.8555 23.1367 23.8555 23.1367 23.8555 23.1367Z" fill="white"/>
<path id="Vector_107" d="M23.8672 22.9414C23.8676 22.9332 23.8762 22.9351 23.8762 22.9433C23.8762 22.9515 23.8676 22.9533 23.8672 22.9451C23.8672 22.9439 23.8672 22.9426 23.8672 22.9414Z" fill="white"/>
<path id="Vector_108" d="M24.866 23.5156L24.8631 23.5154C24.8616 23.5154 24.8603 23.5141 24.8602 23.5126C24.8601 23.5093 24.8598 23.5061 24.8596 23.5028C24.859 23.4927 24.8676 23.4927 24.8669 23.5028C24.8666 23.5071 24.8661 23.5113 24.8659 23.5155C24.8659 23.5156 24.8659 23.5156 24.866 23.5156Z" fill="white"/>
<path id="Vector_109" d="M26.9705 19.1213C26.9704 19.1223 26.9695 19.123 26.9686 19.123H26.8535C26.8524 19.123 26.8516 19.1221 26.8516 19.1211C26.8516 19.12 26.8524 19.1191 26.8535 19.1191H26.9686C26.9697 19.1191 26.9706 19.1201 26.9705 19.1213Z" fill="white"/>
<path id="Vector_110" d="M27.1955 19.1606C27.2034 19.1637 27.199 19.1748 27.1917 19.1704C27.1855 19.1668 27.1851 19.157 27.1919 19.1592C27.1931 19.1596 27.1943 19.1601 27.1955 19.1606Z" fill="white"/>
<path id="Vector_111" d="M26.0565 19.4395C26.0576 19.4395 26.0584 19.4403 26.0584 19.4413V19.5167C26.0584 19.5177 26.0576 19.5185 26.0565 19.5185C26.0555 19.5185 26.0547 19.5177 26.0547 19.5167V19.4413C26.0547 19.4403 26.0555 19.4395 26.0565 19.4395Z" fill="white"/>
<path id="Vector_112" d="M26.9551 20.7734C26.9629 20.7735 26.9624 20.7808 26.9546 20.7809C26.9468 20.781 26.9474 20.7734 26.9551 20.7734Z" fill="white"/>
<path id="Vector_113" d="M26.7737 20.7754H26.8342C26.8353 20.7754 26.8362 20.7763 26.8362 20.7774C26.8362 20.7784 26.8353 20.7793 26.8342 20.7793H26.7755C26.7744 20.7793 26.7735 20.7784 26.7736 20.7772C26.7736 20.7766 26.7736 20.776 26.7736 20.7755C26.7737 20.7754 26.7737 20.7754 26.7737 20.7754Z" fill="white"/>
<path id="Vector_114" d="M18.1875 22.9941H18.6253C18.4789 23.0017 18.3325 23.012 18.1875 22.9941Z" fill="white"/>
<path id="Vector_115" d="M18.6349 23.2949C18.635 23.2949 18.635 23.2949 18.6349 23.2949C18.5914 23.307 18.547 23.2984 18.503 23.3005C18.5015 23.3006 18.5002 23.2993 18.5002 23.2978C18.5001 23.2963 18.5014 23.2949 18.5029 23.2949C18.547 23.2949 18.5909 23.2949 18.6349 23.2949Z" fill="white"/>
<path id="Vector_116" d="M22.8828 18.8905C22.8828 18.8906 22.8828 18.8906 22.8829 18.8906C22.9186 18.89 22.9544 18.8893 22.9902 18.8887C23.0033 18.8894 23.0164 18.8901 23.0295 18.8908C23.0306 18.8908 23.0315 18.8918 23.0315 18.8929C23.0315 18.8941 23.0306 18.8951 23.0294 18.8951C22.982 18.8951 22.9347 18.8951 22.8874 18.8951C22.8849 18.8951 22.8829 18.893 22.8828 18.8905Z" fill="white"/>
<path id="Vector_117" d="M23.264 18.9891C23.264 18.9891 23.2639 18.9892 23.2639 18.9892C23.263 18.9892 23.2622 18.9893 23.2613 18.9894C23.2595 18.9896 23.2578 18.9882 23.2578 18.9864C23.2578 18.9699 23.2578 18.9534 23.2578 18.9368C23.2578 18.9352 23.2591 18.9339 23.2607 18.9338C23.2625 18.9337 23.264 18.9351 23.264 18.9369V18.9891Z" fill="white"/>
<path id="Vector_118" d="M22.27 20.9743V20.8828C22.2722 20.9132 22.2802 20.9437 22.2696 20.9738C22.2695 20.9739 22.2696 20.974 22.2696 20.9741L22.2699 20.9743C22.2699 20.9743 22.27 20.9743 22.27 20.9743Z" fill="white"/>
<path id="Vector_119" d="M22.1712 23.002C22.1698 23.002 22.1686 23.0008 22.1685 22.9994C22.1684 22.9977 22.1696 22.9961 22.1713 22.9961C22.1927 22.9961 22.2141 22.9961 22.2355 22.9961C22.2371 22.9961 22.2384 22.9974 22.2385 22.999C22.2386 23.0006 22.2372 23.002 22.2355 23.002H22.1712Z" fill="white"/>
</g>
</g>
</g>
<defs>
<radialGradient id="paint0_radial_1672_5845" cx="0" cy="0" r="1" gradientUnits="userSpaceOnUse" gradientTransform="translate(16 15) rotate(63.451) scale(14.7274 17.9418)">
<stop stop-color="#449ECF"/>
<stop offset="0.252598" stop-color="#449ECF"/>
<stop offset="0.545703" stop-color="#68BCC7"/>
<stop offset="0.780808" stop-color="#76C9BC"/>
<stop offset="0.859126" stop-color="#7BD2AA"/>
<stop offset="1" stop-color="#7BD2AA"/>
</radialGradient>
<radialGradient id="paint1_radial_1672_5845" cx="0" cy="0" r="1" gradientUnits="userSpaceOnUse" gradientTransform="translate(21.918 22.3359) rotate(60.6401) scale(0.750441 0.977085)">
<stop stop-color="#449ECF"/>
<stop offset="0.252598" stop-color="#449ECF"/>
<stop offset="0.545703" stop-color="#68BCC7"/>
<stop offset="0.780808" stop-color="#76C9BC"/>
<stop offset="0.859126" stop-color="#7BD2AA"/>
<stop offset="1" stop-color="#7BD2AA"/>
</radialGradient>
<radialGradient id="paint2_radial_1672_5845" cx="0" cy="0" r="1" gradientUnits="userSpaceOnUse" gradientTransform="translate(19.7539 22.5352) rotate(69.5181) scale(0.779621 0.778655)">
<stop stop-color="#449ECF"/>
<stop offset="0.252598" stop-color="#449ECF"/>
<stop offset="0.545703" stop-color="#68BCC7"/>
<stop offset="0.780808" stop-color="#76C9BC"/>
<stop offset="0.859126" stop-color="#7BD2AA"/>
<stop offset="1" stop-color="#7BD2AA"/>
</radialGradient>
</defs>
</svg>
