<svg width="150" height="37" viewBox="0 0 150 37" fill="none" xmlns="http://www.w3.org/2000/svg">
<g id="main logo 1" clip-path="url(#clip0_1745_1555)">
<path id="Vector" d="M48.4462 12.1041V16.3611H54.4448V19.6437H48.4462V24.8763H54.6791V28.1589H44.6758V8.82031H54.6791V12.1041H48.4462Z" fill="white"/>
<path id="Vector_2" d="M70.1179 13.9503C69.6016 13.3177 68.9528 12.8061 68.2173 12.4517C67.4817 12.0972 66.6773 11.9085 65.8609 11.8989C62.2448 11.8989 60.1675 15.2322 60.1675 18.5667C60.1675 21.8245 62.3214 25.0812 65.8349 25.0812C67.4515 25.0812 69.0669 24.2352 70.1156 23.0299V27.5179C68.7053 28.1847 67.2994 28.6725 65.7302 28.6725C60.2926 28.6725 56.2676 23.9784 56.2676 18.6467C56.2676 13.1584 60.1405 8.31104 65.8079 8.31104C67.316 8.31907 68.7977 8.70647 70.1168 9.43754L70.1179 13.9503Z" fill="white"/>
<path id="Vector_3" d="M85.379 24.8763V28.1589H71.3496L79.8648 12.1041H72.6552V8.82031H85.8353L77.3505 24.8763H85.379Z" fill="white"/>
<path id="Vector_4" d="M106.948 18.4905C106.948 23.9281 102.357 28.4161 96.9223 28.4161C91.4881 28.4161 86.8965 23.9281 86.8965 18.4905C86.8965 13.0529 91.4611 8.56494 96.9223 8.56494C102.357 8.56494 106.948 13.0529 106.948 18.4905ZM88.1277 18.4905C88.1277 23.2613 92.1032 27.2615 96.9257 27.2615C101.721 27.2615 105.723 23.2353 105.723 18.4905C105.723 13.7198 101.721 9.71848 96.9257 9.71848C92.0975 9.71848 88.1277 13.7198 88.1277 18.4905Z" fill="white"/>
<path id="Vector_5" d="M109.949 8.82031H113.441C116.258 8.82031 118.495 9.28218 120.623 11.2569C122.65 13.1551 123.7 15.746 123.7 18.5161C123.711 19.836 123.452 21.1441 122.941 22.3609C122.429 23.5777 121.675 24.6777 120.725 25.5939C118.597 27.6464 116.314 28.1589 113.441 28.1589H109.949V8.82031ZM113.412 27.0054C115.951 27.0054 118.054 26.4917 119.901 24.6713C120.733 23.8408 121.39 22.8508 121.831 21.7607C122.272 20.6705 122.488 19.5026 122.467 18.3268C122.446 17.151 122.188 15.9916 121.708 14.9179C121.229 13.8442 120.537 12.8783 119.675 12.0781C117.829 10.4109 115.828 9.97497 113.418 9.97497H111.186V27.0054H113.412Z" fill="white"/>
<path id="Vector_6" d="M127.901 9.97385V17.001H135.698V18.1556H127.901V27.0043H135.899V28.1578H126.662V8.82031H135.899V9.97385H127.901Z" fill="white"/>
<path id="Vector_7" d="M138.107 8.82031H139.465L143.903 17.1305L148.34 8.82031H149.7L144.646 18.2829L149.955 28.1567H148.619L143.9 19.4105L139.232 28.1567H137.898L143.183 18.2829L138.107 8.82031Z" fill="white"/>
<path id="Vector_8" d="M20.6811 34.0235C17.8321 34.0246 15.026 33.329 12.5075 31.9972C9.98895 30.6654 7.83435 28.7378 6.23147 26.3825C7.45935 26.7362 9.04772 26.8331 10.8726 26.6821C13.9874 30.1123 18.5723 31.6736 22.8496 30.3072C24.2086 29.8721 25.4638 29.1628 26.5378 28.2232C25.691 28.808 24.762 29.2636 23.7812 29.575C19.7438 30.8648 15.4327 29.5457 12.3427 26.5086C15.2975 26.0817 18.7367 25.0814 22.2559 23.5313C29.2166 20.4605 34.3804 16.1538 35.481 12.8464C34.0166 15.8959 29.3247 19.646 23.1425 22.3732C18.8133 24.2883 14.6047 25.3168 11.3593 25.4294C10.201 24.0132 9.32182 22.3902 8.76834 20.6463C8.42175 19.5631 8.20175 18.4434 8.11272 17.3096C9.80247 15.6458 12.1591 13.9459 14.9675 12.4263C12.2875 13.7634 9.94216 15.2695 8.08231 16.7937C7.91896 12.8262 9.43411 9.11322 12.1377 6.75095C8.83481 9.04113 6.95581 13.163 7.1552 17.5958C5.62316 18.9859 4.51693 20.3557 3.94467 21.6129C2.67052 17.3985 3.03109 12.8587 4.95452 8.89825C6.87795 4.93781 10.223 1.8475 14.3231 0.243164C11.2843 0.9831 8.48332 2.48299 6.18302 4.60207C3.88272 6.72115 2.15854 9.38994 1.1723 12.358C0.186053 15.326 -0.0299212 18.4959 0.544646 21.5703C1.11921 24.6447 2.46548 27.5227 4.4571 29.9342C6.44872 32.3457 9.02039 34.2116 11.9308 35.3569C14.8411 36.5021 17.9948 36.8892 21.0957 36.4816C24.1966 36.0741 27.1432 34.8854 29.6588 33.0271C32.1745 31.1687 34.1767 28.7017 35.4777 25.8575C33.9036 28.3593 31.7205 30.4208 29.1326 31.849C26.5448 33.2772 23.6369 34.0254 20.6811 34.0235ZM7.198 18.2852C7.44357 20.8521 8.35747 23.3099 9.84866 25.4137C7.61481 25.2695 6.02982 24.5778 5.47446 23.3184C4.87967 21.9655 5.56458 20.1777 7.198 18.2852Z" fill="white"/>
</g>
<defs>
<clipPath id="clip0_1745_1555">
<rect width="150" height="36.8812" fill="white"/>
</clipPath>
</defs>
</svg>
